<?xml version="1.0" standalone="no"?>
<svg width="567.429" height="709.161" viewBox="0 0 567.429 709.161" xmlns="http://www.w3.org/2000/svg">
<title>
/mnt/sdb1/Overview//ProductionOverview/ProductionOverviewPage_Total/VcalOffset_Spectrum/VcalOffset.svg
</title>
<desc>
Creator: ROOT Version 5.34/34
CreationDate: Tue Oct 11 22:44:14 2016</desc>
<defs>
</defs>
<rect x="0.5" y="0" width="566.929" height="708.661" fill="#fefefe"/>
<rect x="85.5394" y="53.1496" width="396.85" height="549.213" fill="none" stroke="black"/>
<rect x="85.5394" y="53.1496" width="396.85" height="549.213" fill="none" stroke="black"/>
<rect x="85.5394" y="53.1496" width="396.85" height="549.213" fill="none" stroke="black"/>
<rect x="85.5394" y="53.1496" width="396.85" height="549.213" fill="none" stroke="black"/>
<path d="M85.5394,602.362h 142.866v -43.9192h 7.93701v -43.9192h 7.93701v -157.449h 7.93701v -112.643h 7.93701v -87.1654h 7.93701v -48.1703h 7.93701v -15.4535h 7.93701v 30.0287h 7.93701v 66.5662h 7.93701v 85.9691h 7.93701v 130.301h 7.93701v 38.4059h
 7.93701v 25.6911h 7.93701v 131.757h 23.811v -43.9192h 7.93701v 43.9192h 119.055" fill="none" stroke="black" stroke-width="2"/>
<path d="M85.5394,602.362h 396.85" fill="none" stroke="black"/>
<text x="370.421" y="649.134" fill="black" font-size="21.3047" font-family="Helvetica" font-weight="bold">
Offset [e^-]
</text>
<path d="M85.5394,587.48v 14.8819" fill="none" stroke="black"/>
<path d="M95.4606,594.921v 7.44094" fill="none" stroke="black"/>
<path d="M105.382,594.921v 7.44094" fill="none" stroke="black"/>
<path d="M115.303,594.921v 7.44094" fill="none" stroke="black"/>
<path d="M125.224,594.921v 7.44094" fill="none" stroke="black"/>
<path d="M135.146,587.48v 14.8819" fill="none" stroke="black"/>
<path d="M145.067,594.921v 7.44094" fill="none" stroke="black"/>
<path d="M154.988,594.921v 7.44094" fill="none" stroke="black"/>
<path d="M164.909,594.921v 7.44094" fill="none" stroke="black"/>
<path d="M174.831,594.921v 7.44094" fill="none" stroke="black"/>
<path d="M184.752,587.48v 14.8819" fill="none" stroke="black"/>
<path d="M194.673,594.921v 7.44094" fill="none" stroke="black"/>
<path d="M204.594,594.921v 7.44094" fill="none" stroke="black"/>
<path d="M214.516,594.921v 7.44094" fill="none" stroke="black"/>
<path d="M224.437,594.921v 7.44094" fill="none" stroke="black"/>
<path d="M234.358,587.48v 14.8819" fill="none" stroke="black"/>
<path d="M244.28,594.921v 7.44094" fill="none" stroke="black"/>
<path d="M254.201,594.921v 7.44094" fill="none" stroke="black"/>
<path d="M264.122,594.921v 7.44094" fill="none" stroke="black"/>
<path d="M274.043,594.921v 7.44094" fill="none" stroke="black"/>
<path d="M283.965,587.48v 14.8819" fill="none" stroke="black"/>
<path d="M293.886,594.921v 7.44094" fill="none" stroke="black"/>
<path d="M303.807,594.921v 7.44094" fill="none" stroke="black"/>
<path d="M313.728,594.921v 7.44094" fill="none" stroke="black"/>
<path d="M323.65,594.921v 7.44094" fill="none" stroke="black"/>
<path d="M333.571,587.48v 14.8819" fill="none" stroke="black"/>
<path d="M343.492,594.921v 7.44094" fill="none" stroke="black"/>
<path d="M353.413,594.921v 7.44094" fill="none" stroke="black"/>
<path d="M363.335,594.921v 7.44094" fill="none" stroke="black"/>
<path d="M373.256,594.921v 7.44094" fill="none" stroke="black"/>
<path d="M383.177,587.48v 14.8819" fill="none" stroke="black"/>
<path d="M393.098,594.921v 7.44094" fill="none" stroke="black"/>
<path d="M403.02,594.921v 7.44094" fill="none" stroke="black"/>
<path d="M412.941,594.921v 7.44094" fill="none" stroke="black"/>
<path d="M422.862,594.921v 7.44094" fill="none" stroke="black"/>
<path d="M432.783,587.48v 14.8819" fill="none" stroke="black"/>
<path d="M442.705,594.921v 7.44094" fill="none" stroke="black"/>
<path d="M452.626,594.921v 7.44094" fill="none" stroke="black"/>
<path d="M462.547,594.921v 7.44094" fill="none" stroke="black"/>
<path d="M472.469,594.921v 7.44094" fill="none" stroke="black"/>
<path d="M482.39,587.48v 14.8819" fill="none" stroke="black"/>
<text x="71.3661" y="626.457" fill="black" font-size="16.1036" font-family="Helvetica" font-weight="bold">
2000
</text>
<text x="62.8622" y="634.508" text-anchor="middle" fill="black" font-size="16.1036" font-family="Times">
&#8722;
</text>
<text x="120.972" y="626.457" fill="black" font-size="16.1036" font-family="Helvetica" font-weight="bold">
1500
</text>
<text x="112.469" y="634.508" text-anchor="middle" fill="black" font-size="16.1036" font-family="Times">
&#8722;
</text>
<text x="170.579" y="626.457" fill="black" font-size="16.1036" font-family="Helvetica" font-weight="bold">
1000
</text>
<text x="162.075" y="634.508" text-anchor="middle" fill="black" font-size="16.1036" font-family="Times">
&#8722;
</text>
<text x="224.437" y="626.457" fill="black" font-size="16.1036" font-family="Helvetica" font-weight="bold">
500
</text>
<text x="217.35" y="634.508" text-anchor="middle" fill="black" font-size="16.1036" font-family="Times">
&#8722;
</text>
<text x="279.713" y="626.457" fill="black" font-size="16.1036" font-family="Helvetica" font-weight="bold">
0
</text>
<text x="320.815" y="626.457" fill="black" font-size="16.1036" font-family="Helvetica" font-weight="bold">
500
</text>
<text x="364.752" y="626.457" fill="black" font-size="16.1036" font-family="Helvetica" font-weight="bold">
1000
</text>
<text x="414.358" y="626.457" fill="black" font-size="16.1036" font-family="Helvetica" font-weight="bold">
1500
</text>
<text x="463.965" y="626.457" fill="black" font-size="16.1036" font-family="Helvetica" font-weight="bold">
2000
</text>
<path d="M85.5394,53.1496h 396.85" fill="none" stroke="black"/>
<path d="M85.5394,68.0315v -14.8819" fill="none" stroke="black"/>
<path d="M95.4606,60.5905v -7.44094" fill="none" stroke="black"/>
<path d="M105.382,60.5905v -7.44094" fill="none" stroke="black"/>
<path d="M115.303,60.5905v -7.44094" fill="none" stroke="black"/>
<path d="M125.224,60.5905v -7.44094" fill="none" stroke="black"/>
<path d="M135.146,68.0315v -14.8819" fill="none" stroke="black"/>
<path d="M145.067,60.5905v -7.44094" fill="none" stroke="black"/>
<path d="M154.988,60.5905v -7.44094" fill="none" stroke="black"/>
<path d="M164.909,60.5905v -7.44094" fill="none" stroke="black"/>
<path d="M174.831,60.5905v -7.44094" fill="none" stroke="black"/>
<path d="M184.752,68.0315v -14.8819" fill="none" stroke="black"/>
<path d="M194.673,60.5905v -7.44094" fill="none" stroke="black"/>
<path d="M204.594,60.5905v -7.44094" fill="none" stroke="black"/>
<path d="M214.516,60.5905v -7.44094" fill="none" stroke="black"/>
<path d="M224.437,60.5905v -7.44094" fill="none" stroke="black"/>
<path d="M234.358,68.0315v -14.8819" fill="none" stroke="black"/>
<path d="M244.28,60.5905v -7.44094" fill="none" stroke="black"/>
<path d="M254.201,60.5905v -7.44094" fill="none" stroke="black"/>
<path d="M264.122,60.5905v -7.44094" fill="none" stroke="black"/>
<path d="M274.043,60.5905v -7.44094" fill="none" stroke="black"/>
<path d="M283.965,68.0315v -14.8819" fill="none" stroke="black"/>
<path d="M293.886,60.5905v -7.44094" fill="none" stroke="black"/>
<path d="M303.807,60.5905v -7.44094" fill="none" stroke="black"/>
<path d="M313.728,60.5905v -7.44094" fill="none" stroke="black"/>
<path d="M323.65,60.5905v -7.44094" fill="none" stroke="black"/>
<path d="M333.571,68.0315v -14.8819" fill="none" stroke="black"/>
<path d="M343.492,60.5905v -7.44094" fill="none" stroke="black"/>
<path d="M353.413,60.5905v -7.44094" fill="none" stroke="black"/>
<path d="M363.335,60.5905v -7.44094" fill="none" stroke="black"/>
<path d="M373.256,60.5905v -7.44094" fill="none" stroke="black"/>
<path d="M383.177,68.0315v -14.8819" fill="none" stroke="black"/>
<path d="M393.098,60.5905v -7.44094" fill="none" stroke="black"/>
<path d="M403.02,60.5905v -7.44094" fill="none" stroke="black"/>
<path d="M412.941,60.5905v -7.44094" fill="none" stroke="black"/>
<path d="M422.862,60.5905v -7.44094" fill="none" stroke="black"/>
<path d="M432.783,68.0315v -14.8819" fill="none" stroke="black"/>
<path d="M442.705,60.5905v -7.44094" fill="none" stroke="black"/>
<path d="M452.626,60.5905v -7.44094" fill="none" stroke="black"/>
<path d="M462.547,60.5905v -7.44094" fill="none" stroke="black"/>
<path d="M472.469,60.5905v -7.44094" fill="none" stroke="black"/>
<path d="M482.39,68.0315v -14.8819" fill="none" stroke="black"/>
<path d="M85.5394,602.362v -549.213" fill="none" stroke="black"/>
<g transform="rotate(-90,38.7677,128.976)">
<text x="38.7677" y="128.976" fill="black" font-size="21.3047" font-family="Helvetica" font-weight="bold">
# ROCs
</text>
</g>
<path d="M92.1299,602.362h -6.59055" fill="none" stroke="black"/>
<path d="M92.1299,590.81h -6.59055" fill="none" stroke="black"/>
<path d="M92.1299,581.043h -6.59055" fill="none" stroke="black"/>
<path d="M92.1299,572.582h -6.59055" fill="none" stroke="black"/>
<path d="M92.1299,565.119h -6.59055" fill="none" stroke="black"/>
<path d="M98.7205,558.443h -13.1811" fill="none" stroke="black"/>
<text x="78.5094" y="566.495" text-anchor="end" fill="black" font-size="16.1036" font-family="Helvetica" font-weight="bold">
1
</text>
<path d="M92.1299,514.524h -6.59055" fill="none" stroke="black"/>
<path d="M92.1299,488.833h -6.59055" fill="none" stroke="black"/>
<path d="M92.1299,470.605h -6.59055" fill="none" stroke="black"/>
<path d="M92.1299,456.466h -6.59055" fill="none" stroke="black"/>
<path d="M92.1299,444.914h -6.59055" fill="none" stroke="black"/>
<path d="M92.1299,435.146h -6.59055" fill="none" stroke="black"/>
<path d="M92.1299,426.685h -6.59055" fill="none" stroke="black"/>
<path d="M92.1299,419.223h -6.59055" fill="none" stroke="black"/>
<path d="M98.7205,412.547h -13.1811" fill="none" stroke="black"/>
<text x="78.5094" y="420.598" text-anchor="end" fill="black" font-size="16.1036" font-family="Helvetica" font-weight="bold">
10
</text>
<path d="M92.1299,368.628h -6.59055" fill="none" stroke="black"/>
<path d="M92.1299,342.936h -6.59055" fill="none" stroke="black"/>
<path d="M92.1299,324.708h -6.59055" fill="none" stroke="black"/>
<path d="M92.1299,310.57h -6.59055" fill="none" stroke="black"/>
<path d="M92.1299,299.017h -6.59055" fill="none" stroke="black"/>
<path d="M92.1299,289.25h -6.59055" fill="none" stroke="black"/>
<path d="M92.1299,280.789h -6.59055" fill="none" stroke="black"/>
<path d="M92.1299,273.326h -6.59055" fill="none" stroke="black"/>
<path d="M98.7205,266.65h -13.1811" fill="none" stroke="black"/>
<text x="72.7835" y="267.874" fill="black" font-size="10.9024" font-family="Helvetica" font-weight="bold">
2
</text>
<text x="55.7756" y="273.543" fill="black" font-size="16.1036" font-family="Helvetica" font-weight="bold">
10
</text>
<path d="M92.1299,222.731h -6.59055" fill="none" stroke="black"/>
<path d="M92.1299,197.04h -6.59055" fill="none" stroke="black"/>
<path d="M92.1299,178.812h -6.59055" fill="none" stroke="black"/>
<path d="M92.1299,164.673h -6.59055" fill="none" stroke="black"/>
<path d="M92.1299,153.121h -6.59055" fill="none" stroke="black"/>
<path d="M92.1299,143.354h -6.59055" fill="none" stroke="black"/>
<path d="M92.1299,134.893h -6.59055" fill="none" stroke="black"/>
<path d="M92.1299,127.43h -6.59055" fill="none" stroke="black"/>
<path d="M98.7205,120.754h -13.1811" fill="none" stroke="black"/>
<text x="72.7835" y="120.472" fill="black" font-size="10.9024" font-family="Helvetica" font-weight="bold">
3
</text>
<text x="55.7756" y="127.559" fill="black" font-size="16.1036" font-family="Helvetica" font-weight="bold">
10
</text>
<path d="M92.1299,76.835h -6.59055" fill="none" stroke="black"/>
<path d="M482.39,602.362v -549.213" fill="none" stroke="black"/>
<path d="M475.799,602.362h 6.59055" fill="none" stroke="black"/>
<path d="M475.799,590.81h 6.59055" fill="none" stroke="black"/>
<path d="M475.799,581.043h 6.59055" fill="none" stroke="black"/>
<path d="M475.799,572.582h 6.59055" fill="none" stroke="black"/>
<path d="M475.799,565.119h 6.59055" fill="none" stroke="black"/>
<path d="M469.209,558.443h 13.1811" fill="none" stroke="black"/>
<path d="M475.799,514.524h 6.59055" fill="none" stroke="black"/>
<path d="M475.799,488.833h 6.59055" fill="none" stroke="black"/>
<path d="M475.799,470.605h 6.59055" fill="none" stroke="black"/>
<path d="M475.799,456.466h 6.59055" fill="none" stroke="black"/>
<path d="M475.799,444.914h 6.59055" fill="none" stroke="black"/>
<path d="M475.799,435.146h 6.59055" fill="none" stroke="black"/>
<path d="M475.799,426.685h 6.59055" fill="none" stroke="black"/>
<path d="M475.799,419.223h 6.59055" fill="none" stroke="black"/>
<path d="M469.209,412.547h 13.1811" fill="none" stroke="black"/>
<path d="M475.799,368.628h 6.59055" fill="none" stroke="black"/>
<path d="M475.799,342.936h 6.59055" fill="none" stroke="black"/>
<path d="M475.799,324.708h 6.59055" fill="none" stroke="black"/>
<path d="M475.799,310.57h 6.59055" fill="none" stroke="black"/>
<path d="M475.799,299.017h 6.59055" fill="none" stroke="black"/>
<path d="M475.799,289.25h 6.59055" fill="none" stroke="black"/>
<path d="M475.799,280.789h 6.59055" fill="none" stroke="black"/>
<path d="M475.799,273.326h 6.59055" fill="none" stroke="black"/>
<path d="M469.209,266.65h 13.1811" fill="none" stroke="black"/>
<path d="M475.799,222.731h 6.59055" fill="none" stroke="black"/>
<path d="M475.799,197.04h 6.59055" fill="none" stroke="black"/>
<path d="M475.799,178.812h 6.59055" fill="none" stroke="black"/>
<path d="M475.799,164.673h 6.59055" fill="none" stroke="black"/>
<path d="M475.799,153.121h 6.59055" fill="none" stroke="black"/>
<path d="M475.799,143.354h 6.59055" fill="none" stroke="black"/>
<path d="M475.799,134.893h 6.59055" fill="none" stroke="black"/>
<path d="M475.799,127.43h 6.59055" fill="none" stroke="black"/>
<path d="M469.209,120.754h 13.1811" fill="none" stroke="black"/>
<path d="M475.799,76.835h 6.59055" fill="none" stroke="black"/>
<path d="M85.5394,602.362h 142.866v -43.9192h 7.93701v -43.9192h 7.93701v -157.449h 7.93701v -112.643h 7.93701v -87.1654h 7.93701v -48.1703h 7.93701v -15.4535h 7.93701v 30.0287h 7.93701v 66.5662h 7.93701v 85.9691h 7.93701v 130.301h 7.93701v 38.4059h
 7.93701v 25.6911h 7.93701v 131.757h 23.811v -43.9192h 7.93701v 43.9192h 119.055" fill="none" stroke="black" stroke-width="2"/>
<path d="M85.5394,602.362h 142.866v -43.9192h 7.93701v -43.9192h 7.93701v -157.449h 7.93701v -112.643h 7.93701v -87.1654h 7.93701v -48.1703h 7.93701v -15.4535h 7.93701v 30.0287h 7.93701v 66.5662h 7.93701v 85.9691h 7.93701v 130.301h 7.93701v 38.4059h
 7.93701v 25.6911h 7.93701v 131.757h 23.811v -43.9192h 7.93701v 43.9192h 119.055z" fill="#fefefe"/>
<path d="M85.5394,602.362h 142.866v -43.9192h 7.93701v -43.9192h 7.93701v -157.449h 7.93701v -112.643h 7.93701v -87.1654h 7.93701v -48.1703h 7.93701v -15.4535h 7.93701v 30.0287h 7.93701v 66.5662h 7.93701v 85.9691h 7.93701v 130.301h 7.93701v 38.4059h
 7.93701v 25.6911h 7.93701v 131.757h 23.811v -43.9192h 7.93701v 43.9192h 119.055" fill="none" stroke="#ff0000" stroke-width="2"/>
<path d="M85.5394,602.362h 142.866v -43.9192h 7.93701v -43.9192h 7.93701v -157.449h 7.93701v -112.643h 7.93701v -87.1654h 7.93701v -48.1703h 7.93701v -15.4535h 7.93701v 30.0287h 7.93701v 66.5662h 7.93701v 85.9691h 7.93701v 130.301h 7.93701v 38.4059h
 7.93701v 25.6911h 7.93701v 131.757h 23.811v -43.9192h 7.93701v 43.9192h 119.055" fill="none" stroke="#ff0000" stroke-width="2"/>
<path d="M85.5394,602.362h 142.866v -43.9192h 7.93701v -43.9192h 7.93701v -157.449h 7.93701v -112.643h 7.93701v -87.1654h 7.93701v -48.1703h 7.93701v -15.4535h 7.93701v 30.0287h 7.93701v 66.5662h 7.93701v 85.9691h 7.93701v 130.301h 7.93701v 38.4059h
 7.93701v 25.6911h 7.93701v 131.757h 23.811v -43.9192h 7.93701v 43.9192h 119.055z" fill="#ff0000"/>
<path d="M85.5394,602.362h 142.866v -43.9192h 7.93701v -43.9192h 7.93701v -157.449h 7.93701v -112.643h 7.93701v -87.1654h 7.93701v -48.1703h 7.93701v -15.4535h 7.93701v 30.0287h 7.93701v 66.5662h 7.93701v 85.9691h 7.93701v 130.301h 7.93701v 38.4059h
 7.93701v 25.6911h 7.93701v 131.757h 23.811v -43.9192h 7.93701v 43.9192h 119.055" fill="none" stroke="#ff0000" stroke-width="2"/>
<path d="M85.5394,602.362h 142.866v -43.9192h 7.93701v -43.9192h 7.93701v -157.449h 7.93701v -112.643h 7.93701v -86.3713h 7.93701v -48.3287h 7.93701v -15.7164h 7.93701v 29.9218h 7.93701v 66.3002h 7.93701v 85.9691h 7.93701v 130.301h 7.93701v 38.4059h
 7.93701v 43.9192h 7.93701v 113.529h 23.811v -43.9192h 7.93701v 43.9192h 119.055z" fill="#fefefe"/>
<path d="M85.5394,602.362h 142.866v -43.9192h 7.93701v -43.9192h 7.93701v -157.449h 7.93701v -112.643h 7.93701v -86.3713h 7.93701v -48.3287h 7.93701v -15.7164h 7.93701v 29.9218h 7.93701v 66.3002h 7.93701v 85.9691h 7.93701v 130.301h 7.93701v 38.4059h
 7.93701v 43.9192h 7.93701v 113.529h 23.811v -43.9192h 7.93701v 43.9192h 119.055" fill="none" stroke="#ff9933" stroke-width="2"/>
<path d="M85.5394,602.362h 142.866v -43.9192h 7.93701v -43.9192h 7.93701v -157.449h 7.93701v -112.643h 7.93701v -86.3713h 7.93701v -48.3287h 7.93701v -15.7164h 7.93701v 29.9218h 7.93701v 66.3002h 7.93701v 85.9691h 7.93701v 130.301h 7.93701v 38.4059h
 7.93701v 43.9192h 7.93701v 113.529h 23.811v -43.9192h 7.93701v 43.9192h 119.055" fill="none" stroke="#ff9933" stroke-width="2"/>
<path d="M85.5394,602.362h 142.866v -43.9192h 7.93701v -43.9192h 7.93701v -157.449h 7.93701v -112.643h 7.93701v -86.3713h 7.93701v -48.3287h 7.93701v -15.7164h 7.93701v 29.9218h 7.93701v 66.3002h 7.93701v 85.9691h 7.93701v 130.301h 7.93701v 38.4059h
 7.93701v 43.9192h 7.93701v 113.529h 23.811v -43.9192h 7.93701v 43.9192h 119.055z" fill="#ff9933"/>
<path d="M85.5394,602.362h 142.866v -43.9192h 7.93701v -43.9192h 7.93701v -157.449h 7.93701v -112.643h 7.93701v -86.3713h 7.93701v -48.3287h 7.93701v -15.7164h 7.93701v 29.9218h 7.93701v 66.3002h 7.93701v 85.9691h 7.93701v 130.301h 7.93701v 38.4059h
 7.93701v 43.9192h 7.93701v 113.529h 23.811v -43.9192h 7.93701v 43.9192h 119.055" fill="none" stroke="#ff9933" stroke-width="2"/>
<path d="M85.5394,602.362h 142.866v -43.9192h 7.93701v -43.9192h 7.93701v -154.752h 7.93701v -113.987h 7.93701v -86.4558h 7.93701v -48.0885h 7.93701v -16.0932h 7.93701v 30.0007h 7.93701v 66.4315h 7.93701v 85.3681h 7.93701v 135.599h 7.93701v 76.2861h
 15.874v 113.529h 23.811v -43.9192h 7.93701v 43.9192h 119.055z" fill="#fefefe"/>
<path d="M85.5394,602.362h 142.866v -43.9192h 7.93701v -43.9192h 7.93701v -154.752h 7.93701v -113.987h 7.93701v -86.4558h 7.93701v -48.0885h 7.93701v -16.0932h 7.93701v 30.0007h 7.93701v 66.4315h 7.93701v 85.3681h 7.93701v 135.599h 7.93701v 76.2861h
 15.874v 113.529h 23.811v -43.9192h 7.93701v 43.9192h 119.055" fill="none" stroke="#009900" stroke-width="2"/>
<path d="M85.5394,602.362h 142.866v -43.9192h 7.93701v -43.9192h 7.93701v -154.752h 7.93701v -113.987h 7.93701v -86.4558h 7.93701v -48.0885h 7.93701v -16.0932h 7.93701v 30.0007h 7.93701v 66.4315h 7.93701v 85.3681h 7.93701v 135.599h 7.93701v 76.2861h
 15.874v 113.529h 23.811v -43.9192h 7.93701v 43.9192h 119.055" fill="none" stroke="#009900" stroke-width="2"/>
<path d="M85.5394,602.362h 142.866v -43.9192h 7.93701v -43.9192h 7.93701v -154.752h 7.93701v -113.987h 7.93701v -86.4558h 7.93701v -48.0885h 7.93701v -16.0932h 7.93701v 30.0007h 7.93701v 66.4315h 7.93701v 85.3681h 7.93701v 135.599h 7.93701v 76.2861h
 15.874v 113.529h 23.811v -43.9192h 7.93701v 43.9192h 119.055z" fill="#009900"/>
<path d="M85.5394,602.362h 142.866v -43.9192h 7.93701v -43.9192h 7.93701v -154.752h 7.93701v -113.987h 7.93701v -86.4558h 7.93701v -48.0885h 7.93701v -16.0932h 7.93701v 30.0007h 7.93701v 66.4315h 7.93701v 85.3681h 7.93701v 135.599h 7.93701v 76.2861h
 15.874v 113.529h 23.811v -43.9192h 7.93701v 43.9192h 119.055" fill="none" stroke="#009900" stroke-width="2"/>
<text x="181.917" y="76.5354" fill="black" font-size="10.9024" font-family="Helvetica" font-weight="bold">
 = 104.5465
</text>
<text x="174.831" y="76.5354" fill="black" font-size="10.9024" font-family="Times">
&#0963;
</text>
<text x="119.555" y="76.5354" fill="black" font-size="10.9024" font-family="Helvetica" font-weight="bold">
 = -54.5092 
</text>
<text x="113.886" y="76.5354" fill="black" font-size="10.9024" font-family="Times">
&#0956;
</text>
<text x="94.0433" y="76.5354" fill="black" font-size="10.9024" font-family="Helvetica" font-weight="bold">
All: 
</text>
<text x="94.0433" y="93.5433" fill="black" font-size="10.9024" font-family="Helvetica" font-weight="bold">
  UF = 0, OF = 0
</text>
<text x="177.665" y="111.969" fill="black" font-size="10.9024" font-family="Helvetica" font-weight="bold">
 = 104.4759
</text>
<text x="170.579" y="111.969" fill="black" font-size="10.9024" font-family="Times">
&#0963;
</text>
<text x="120.972" y="111.969" fill="black" font-size="10.9024" font-family="Helvetica" font-weight="bold">
 = -54.386 
</text>
<text x="115.303" y="111.969" fill="black" font-size="10.9024" font-family="Times">
&#0956;
</text>
<text x="94.0433" y="111.969" fill="black" font-size="10.9024" font-family="Helvetica" font-weight="bold">
AB: 
</text>
<text x="94.0433" y="128.976" fill="black" font-size="10.9024" font-family="Helvetica" font-weight="bold">
  UF = 0, OF = 0
</text>
<text x="176.248" y="147.402" fill="black" font-size="10.9024" font-family="Helvetica" font-weight="bold">
 = 112.9697
</text>
<text x="169.161" y="147.402" fill="black" font-size="10.9024" font-family="Times">
&#0963;
</text>
<text x="113.886" y="147.402" fill="black" font-size="10.9024" font-family="Helvetica" font-weight="bold">
 = -72.5382 
</text>
<text x="108.217" y="147.402" fill="black" font-size="10.9024" font-family="Times">
&#0956;
</text>
<text x="94.0433" y="147.402" fill="black" font-size="10.9024" font-family="Helvetica" font-weight="bold">
C: 
</text>
<text x="94.0433" y="164.409" fill="black" font-size="10.9024" font-family="Helvetica" font-weight="bold">
  UF = 0, OF = 0
</text>
<text x="85.5394" y="34.1552" fill="black" font-size="18.7041" font-family="Helvetica" font-weight="bold">
Mean: -54, RMS: 104.5465, Gauss-fit sigma: 104.1186
</text>
<text x="408.689" y="78.9179" fill="#009900" font-size="16.1036" font-family="Helvetica" font-weight="bold">
Grade A
</text>
<text x="408.689" y="93.0911" fill="#ff9933" font-size="16.1036" font-family="Helvetica" font-weight="bold">
Grade B
</text>
<text x="408.689" y="107.264" fill="#ff0000" font-size="16.1036" font-family="Helvetica" font-weight="bold">
Grade C
</text></svg>
