<?xml version="1.0" standalone="no"?>
<svg width="567.429" height="709.161" viewBox="0 0 567.429 709.161" xmlns="http://www.w3.org/2000/svg">
<title>
/mnt/sdb1/Overview//ProductionOverview/ProductionOverviewPage_Total/VcalSlope_Spectrum/VcalSlope.svg
</title>
<desc>
Creator: ROOT Version 5.34/34
CreationDate: Tue Oct 11 22:43:32 2016</desc>
<defs>
</defs>
<rect x="0.5" y="0" width="566.929" height="708.661" fill="#fefefe"/>
<rect x="85.5394" y="53.1496" width="396.85" height="549.213" fill="none" stroke="black"/>
<rect x="85.5394" y="53.1496" width="396.85" height="549.213" fill="none" stroke="black"/>
<rect x="85.5394" y="53.1496" width="396.85" height="549.213" fill="none" stroke="black"/>
<rect x="85.5394" y="53.1496" width="396.85" height="549.213" fill="none" stroke="black"/>
<path d="M85.5394,602.362h 93.3766v -50.7174h 5.83604v -50.7174h 5.83604v 50.7174h 5.83604v -101.435h 5.83604v -16.3273h 5.83604v -57.6912h 5.83604v -6.36659h 5.83604v -56.5741h 5.83604v -44.8607h 5.83604v -4.43588h 5.83604v -36.511h 5.83604v
 -33.6238h 5.83604v -15.3303h 5.83604v -19.1284h 5.83604v -25.0599h 5.83604v -6.97382h 5.83604v -27.4162h 5.83604v 3.4329h 5.83604v -1.89242h 5.83604v 1.89242h 5.83604v 17.6167h 5.83604v 4.61394h 5.83604v 16.7072h 5.83604v 12.4214h 5.83604v 26.978h
 5.83604v 26.6995h 5.83604v 28.3374h 5.83604v 46.8654h 5.83604v 60.7563h 5.83604v 14.2063h 5.83604v 61.9965h 5.83604v 131.102h 5.83604v 50.7174h 11.6721v -50.7174h 5.83604v 50.7174h 99.2126" fill="none" stroke="black" stroke-width="2"/>
<path d="M85.5394,602.362h 396.85" fill="none" stroke="black"/>
<text x="342.075" y="649.134" fill="black" font-size="21.3047" font-family="Helvetica" font-weight="bold">
e^-/Vcal[DAC]
</text>
<path d="M85.5394,587.48v 14.8819" fill="none" stroke="black"/>
<path d="M97.2114,594.921v 7.44094" fill="none" stroke="black"/>
<path d="M108.884,594.921v 7.44094" fill="none" stroke="black"/>
<path d="M120.556,594.921v 7.44094" fill="none" stroke="black"/>
<path d="M132.228,594.921v 7.44094" fill="none" stroke="black"/>
<path d="M143.9,587.48v 14.8819" fill="none" stroke="black"/>
<path d="M155.572,594.921v 7.44094" fill="none" stroke="black"/>
<path d="M167.244,594.921v 7.44094" fill="none" stroke="black"/>
<path d="M178.916,594.921v 7.44094" fill="none" stroke="black"/>
<path d="M190.588,594.921v 7.44094" fill="none" stroke="black"/>
<path d="M202.26,587.48v 14.8819" fill="none" stroke="black"/>
<path d="M213.932,594.921v 7.44094" fill="none" stroke="black"/>
<path d="M225.604,594.921v 7.44094" fill="none" stroke="black"/>
<path d="M237.276,594.921v 7.44094" fill="none" stroke="black"/>
<path d="M248.948,594.921v 7.44094" fill="none" stroke="black"/>
<path d="M260.62,587.48v 14.8819" fill="none" stroke="black"/>
<path d="M272.293,594.921v 7.44094" fill="none" stroke="black"/>
<path d="M283.965,594.921v 7.44094" fill="none" stroke="black"/>
<path d="M295.637,594.921v 7.44094" fill="none" stroke="black"/>
<path d="M307.309,594.921v 7.44094" fill="none" stroke="black"/>
<path d="M318.981,587.48v 14.8819" fill="none" stroke="black"/>
<path d="M330.653,594.921v 7.44094" fill="none" stroke="black"/>
<path d="M342.325,594.921v 7.44094" fill="none" stroke="black"/>
<path d="M353.997,594.921v 7.44094" fill="none" stroke="black"/>
<path d="M365.669,594.921v 7.44094" fill="none" stroke="black"/>
<path d="M377.341,587.48v 14.8819" fill="none" stroke="black"/>
<path d="M389.013,594.921v 7.44094" fill="none" stroke="black"/>
<path d="M400.685,594.921v 7.44094" fill="none" stroke="black"/>
<path d="M412.357,594.921v 7.44094" fill="none" stroke="black"/>
<path d="M424.029,594.921v 7.44094" fill="none" stroke="black"/>
<path d="M435.701,587.48v 14.8819" fill="none" stroke="black"/>
<path d="M435.701,587.48v 14.8819" fill="none" stroke="black"/>
<path d="M447.374,594.921v 7.44094" fill="none" stroke="black"/>
<path d="M459.046,594.921v 7.44094" fill="none" stroke="black"/>
<path d="M470.718,594.921v 7.44094" fill="none" stroke="black"/>
<path d="M482.39,594.921v 7.44094" fill="none" stroke="black"/>
<text x="77.0354" y="626.457" fill="black" font-size="16.1036" font-family="Helvetica" font-weight="bold">
30
</text>
<text x="135.146" y="626.457" fill="black" font-size="16.1036" font-family="Helvetica" font-weight="bold">
35
</text>
<text x="193.256" y="626.457" fill="black" font-size="16.1036" font-family="Helvetica" font-weight="bold">
40
</text>
<text x="251.366" y="626.457" fill="black" font-size="16.1036" font-family="Helvetica" font-weight="bold">
45
</text>
<text x="309.476" y="626.457" fill="black" font-size="16.1036" font-family="Helvetica" font-weight="bold">
50
</text>
<text x="367.587" y="626.457" fill="black" font-size="16.1036" font-family="Helvetica" font-weight="bold">
55
</text>
<text x="427.114" y="626.457" fill="black" font-size="16.1036" font-family="Helvetica" font-weight="bold">
60
</text>
<path d="M85.5394,53.1496h 396.85" fill="none" stroke="black"/>
<path d="M85.5394,68.0315v -14.8819" fill="none" stroke="black"/>
<path d="M97.2114,60.5905v -7.44094" fill="none" stroke="black"/>
<path d="M108.884,60.5905v -7.44094" fill="none" stroke="black"/>
<path d="M120.556,60.5905v -7.44094" fill="none" stroke="black"/>
<path d="M132.228,60.5905v -7.44094" fill="none" stroke="black"/>
<path d="M143.9,68.0315v -14.8819" fill="none" stroke="black"/>
<path d="M155.572,60.5905v -7.44094" fill="none" stroke="black"/>
<path d="M167.244,60.5905v -7.44094" fill="none" stroke="black"/>
<path d="M178.916,60.5905v -7.44094" fill="none" stroke="black"/>
<path d="M190.588,60.5905v -7.44094" fill="none" stroke="black"/>
<path d="M202.26,68.0315v -14.8819" fill="none" stroke="black"/>
<path d="M213.932,60.5905v -7.44094" fill="none" stroke="black"/>
<path d="M225.604,60.5905v -7.44094" fill="none" stroke="black"/>
<path d="M237.276,60.5905v -7.44094" fill="none" stroke="black"/>
<path d="M248.948,60.5905v -7.44094" fill="none" stroke="black"/>
<path d="M260.62,68.0315v -14.8819" fill="none" stroke="black"/>
<path d="M272.293,60.5905v -7.44094" fill="none" stroke="black"/>
<path d="M283.965,60.5905v -7.44094" fill="none" stroke="black"/>
<path d="M295.637,60.5905v -7.44094" fill="none" stroke="black"/>
<path d="M307.309,60.5905v -7.44094" fill="none" stroke="black"/>
<path d="M318.981,68.0315v -14.8819" fill="none" stroke="black"/>
<path d="M330.653,60.5905v -7.44094" fill="none" stroke="black"/>
<path d="M342.325,60.5905v -7.44094" fill="none" stroke="black"/>
<path d="M353.997,60.5905v -7.44094" fill="none" stroke="black"/>
<path d="M365.669,60.5905v -7.44094" fill="none" stroke="black"/>
<path d="M377.341,68.0315v -14.8819" fill="none" stroke="black"/>
<path d="M389.013,60.5905v -7.44094" fill="none" stroke="black"/>
<path d="M400.685,60.5905v -7.44094" fill="none" stroke="black"/>
<path d="M412.357,60.5905v -7.44094" fill="none" stroke="black"/>
<path d="M424.029,60.5905v -7.44094" fill="none" stroke="black"/>
<path d="M435.701,68.0315v -14.8819" fill="none" stroke="black"/>
<path d="M435.701,68.0315v -14.8819" fill="none" stroke="black"/>
<path d="M447.374,60.5905v -7.44094" fill="none" stroke="black"/>
<path d="M459.046,60.5905v -7.44094" fill="none" stroke="black"/>
<path d="M470.718,60.5905v -7.44094" fill="none" stroke="black"/>
<path d="M482.39,60.5905v -7.44094" fill="none" stroke="black"/>
<path d="M85.5394,602.362v -549.213" fill="none" stroke="black"/>
<g transform="rotate(-90,38.7677,128.976)">
<text x="38.7677" y="128.976" fill="black" font-size="21.3047" font-family="Helvetica" font-weight="bold">
# ROCs
</text>
</g>
<path d="M92.1299,602.362h -6.59055" fill="none" stroke="black"/>
<path d="M92.1299,589.022h -6.59055" fill="none" stroke="black"/>
<path d="M92.1299,577.742h -6.59055" fill="none" stroke="black"/>
<path d="M92.1299,567.972h -6.59055" fill="none" stroke="black"/>
<path d="M92.1299,559.354h -6.59055" fill="none" stroke="black"/>
<path d="M98.7205,551.645h -13.1811" fill="none" stroke="black"/>
<text x="78.5094" y="559.696" text-anchor="end" fill="black" font-size="16.1036" font-family="Helvetica" font-weight="bold">
1
</text>
<path d="M92.1299,500.927h -6.59055" fill="none" stroke="black"/>
<path d="M92.1299,471.26h -6.59055" fill="none" stroke="black"/>
<path d="M92.1299,450.21h -6.59055" fill="none" stroke="black"/>
<path d="M92.1299,433.883h -6.59055" fill="none" stroke="black"/>
<path d="M92.1299,420.542h -6.59055" fill="none" stroke="black"/>
<path d="M92.1299,409.263h -6.59055" fill="none" stroke="black"/>
<path d="M92.1299,399.493h -6.59055" fill="none" stroke="black"/>
<path d="M92.1299,390.875h -6.59055" fill="none" stroke="black"/>
<path d="M98.7205,383.165h -13.1811" fill="none" stroke="black"/>
<text x="78.5094" y="391.217" text-anchor="end" fill="black" font-size="16.1036" font-family="Helvetica" font-weight="bold">
10
</text>
<path d="M92.1299,332.448h -6.59055" fill="none" stroke="black"/>
<path d="M92.1299,302.78h -6.59055" fill="none" stroke="black"/>
<path d="M92.1299,281.731h -6.59055" fill="none" stroke="black"/>
<path d="M92.1299,265.403h -6.59055" fill="none" stroke="black"/>
<path d="M92.1299,252.063h -6.59055" fill="none" stroke="black"/>
<path d="M92.1299,240.784h -6.59055" fill="none" stroke="black"/>
<path d="M92.1299,231.013h -6.59055" fill="none" stroke="black"/>
<path d="M92.1299,222.395h -6.59055" fill="none" stroke="black"/>
<path d="M98.7205,214.686h -13.1811" fill="none" stroke="black"/>
<text x="72.7835" y="215.433" fill="black" font-size="10.9024" font-family="Helvetica" font-weight="bold">
2
</text>
<text x="55.7756" y="221.102" fill="black" font-size="16.1036" font-family="Helvetica" font-weight="bold">
10
</text>
<path d="M92.1299,163.969h -6.59055" fill="none" stroke="black"/>
<path d="M92.1299,134.301h -6.59055" fill="none" stroke="black"/>
<path d="M92.1299,113.251h -6.59055" fill="none" stroke="black"/>
<path d="M92.1299,96.9239h -6.59055" fill="none" stroke="black"/>
<path d="M92.1299,83.5835h -6.59055" fill="none" stroke="black"/>
<path d="M92.1299,72.3044h -6.59055" fill="none" stroke="black"/>
<path d="M92.1299,62.5339h -6.59055" fill="none" stroke="black"/>
<path d="M92.1299,53.9158h -6.59055" fill="none" stroke="black"/>
<path d="M482.39,602.362v -549.213" fill="none" stroke="black"/>
<path d="M475.799,602.362h 6.59055" fill="none" stroke="black"/>
<path d="M475.799,589.022h 6.59055" fill="none" stroke="black"/>
<path d="M475.799,577.742h 6.59055" fill="none" stroke="black"/>
<path d="M475.799,567.972h 6.59055" fill="none" stroke="black"/>
<path d="M475.799,559.354h 6.59055" fill="none" stroke="black"/>
<path d="M469.209,551.645h 13.1811" fill="none" stroke="black"/>
<path d="M475.799,500.927h 6.59055" fill="none" stroke="black"/>
<path d="M475.799,471.26h 6.59055" fill="none" stroke="black"/>
<path d="M475.799,450.21h 6.59055" fill="none" stroke="black"/>
<path d="M475.799,433.883h 6.59055" fill="none" stroke="black"/>
<path d="M475.799,420.542h 6.59055" fill="none" stroke="black"/>
<path d="M475.799,409.263h 6.59055" fill="none" stroke="black"/>
<path d="M475.799,399.493h 6.59055" fill="none" stroke="black"/>
<path d="M475.799,390.875h 6.59055" fill="none" stroke="black"/>
<path d="M469.209,383.165h 13.1811" fill="none" stroke="black"/>
<path d="M475.799,332.448h 6.59055" fill="none" stroke="black"/>
<path d="M475.799,302.78h 6.59055" fill="none" stroke="black"/>
<path d="M475.799,281.731h 6.59055" fill="none" stroke="black"/>
<path d="M475.799,265.403h 6.59055" fill="none" stroke="black"/>
<path d="M475.799,252.063h 6.59055" fill="none" stroke="black"/>
<path d="M475.799,240.784h 6.59055" fill="none" stroke="black"/>
<path d="M475.799,231.013h 6.59055" fill="none" stroke="black"/>
<path d="M475.799,222.395h 6.59055" fill="none" stroke="black"/>
<path d="M469.209,214.686h 13.1811" fill="none" stroke="black"/>
<path d="M475.799,163.969h 6.59055" fill="none" stroke="black"/>
<path d="M475.799,134.301h 6.59055" fill="none" stroke="black"/>
<path d="M475.799,113.251h 6.59055" fill="none" stroke="black"/>
<path d="M475.799,96.9239h 6.59055" fill="none" stroke="black"/>
<path d="M475.799,83.5835h 6.59055" fill="none" stroke="black"/>
<path d="M475.799,72.3044h 6.59055" fill="none" stroke="black"/>
<path d="M475.799,62.5339h 6.59055" fill="none" stroke="black"/>
<path d="M475.799,53.9158h 6.59055" fill="none" stroke="black"/>
<path d="M85.5394,602.362h 93.3766v -50.7174h 5.83604v -50.7174h 5.83604v 50.7174h 5.83604v -101.435h 5.83604v -16.3273h 5.83604v -57.6912h 5.83604v -6.36659h 5.83604v -56.5741h 5.83604v -44.8607h 5.83604v -4.43588h 5.83604v -36.511h 5.83604v
 -33.6238h 5.83604v -15.3303h 5.83604v -19.1284h 5.83604v -25.0599h 5.83604v -6.97382h 5.83604v -27.4162h 5.83604v 3.4329h 5.83604v -1.89242h 5.83604v 1.89242h 5.83604v 17.6167h 5.83604v 4.61394h 5.83604v 16.7072h 5.83604v 12.4214h 5.83604v 26.978h
 5.83604v 26.6995h 5.83604v 28.3374h 5.83604v 46.8654h 5.83604v 60.7563h 5.83604v 14.2063h 5.83604v 61.9965h 5.83604v 131.102h 5.83604v 50.7174h 11.6721v -50.7174h 5.83604v 50.7174h 99.2126" fill="none" stroke="black" stroke-width="2"/>
<path d="M85.5394,602.362h 93.3766v -50.7174h 5.83604v -50.7174h 5.83604v 50.7174h 5.83604v -101.435h 5.83604v -16.3273h 5.83604v -57.6912h 5.83604v -6.36659h 5.83604v -56.5741h 5.83604v -44.8607h 5.83604v -4.43588h 5.83604v -36.511h 5.83604v
 -33.6238h 5.83604v -15.3303h 5.83604v -19.1284h 5.83604v -25.0599h 5.83604v -6.97382h 5.83604v -27.4162h 5.83604v 3.4329h 5.83604v -1.89242h 5.83604v 1.89242h 5.83604v 17.6167h 5.83604v 4.61394h 5.83604v 16.7072h 5.83604v 12.4214h 5.83604v 26.978h
 5.83604v 26.6995h 5.83604v 28.3374h 5.83604v 46.8654h 5.83604v 60.7563h 5.83604v 14.2063h 5.83604v 61.9965h 5.83604v 131.102h 5.83604v 50.7174h 11.6721v -50.7174h 5.83604v 50.7174h 99.2126z" fill="#fefefe"/>
<path d="M85.5394,602.362h 93.3766v -50.7174h 5.83604v -50.7174h 5.83604v 50.7174h 5.83604v -101.435h 5.83604v -16.3273h 5.83604v -57.6912h 5.83604v -6.36659h 5.83604v -56.5741h 5.83604v -44.8607h 5.83604v -4.43588h 5.83604v -36.511h 5.83604v
 -33.6238h 5.83604v -15.3303h 5.83604v -19.1284h 5.83604v -25.0599h 5.83604v -6.97382h 5.83604v -27.4162h 5.83604v 3.4329h 5.83604v -1.89242h 5.83604v 1.89242h 5.83604v 17.6167h 5.83604v 4.61394h 5.83604v 16.7072h 5.83604v 12.4214h 5.83604v 26.978h
 5.83604v 26.6995h 5.83604v 28.3374h 5.83604v 46.8654h 5.83604v 60.7563h 5.83604v 14.2063h 5.83604v 61.9965h 5.83604v 131.102h 5.83604v 50.7174h 11.6721v -50.7174h 5.83604v 50.7174h 99.2126" fill="none" stroke="#ff0000" stroke-width="2"/>
<path d="M85.5394,602.362h 93.3766v -50.7174h 5.83604v -50.7174h 5.83604v 50.7174h 5.83604v -101.435h 5.83604v -16.3273h 5.83604v -57.6912h 5.83604v -6.36659h 5.83604v -56.5741h 5.83604v -44.8607h 5.83604v -4.43588h 5.83604v -36.511h 5.83604v
 -33.6238h 5.83604v -15.3303h 5.83604v -19.1284h 5.83604v -25.0599h 5.83604v -6.97382h 5.83604v -27.4162h 5.83604v 3.4329h 5.83604v -1.89242h 5.83604v 1.89242h 5.83604v 17.6167h 5.83604v 4.61394h 5.83604v 16.7072h 5.83604v 12.4214h 5.83604v 26.978h
 5.83604v 26.6995h 5.83604v 28.3374h 5.83604v 46.8654h 5.83604v 60.7563h 5.83604v 14.2063h 5.83604v 61.9965h 5.83604v 131.102h 5.83604v 50.7174h 11.6721v -50.7174h 5.83604v 50.7174h 99.2126" fill="none" stroke="#ff0000" stroke-width="2"/>
<path d="M85.5394,602.362h 93.3766v -50.7174h 5.83604v -50.7174h 5.83604v 50.7174h 5.83604v -101.435h 5.83604v -16.3273h 5.83604v -57.6912h 5.83604v -6.36659h 5.83604v -56.5741h 5.83604v -44.8607h 5.83604v -4.43588h 5.83604v -36.511h 5.83604v
 -33.6238h 5.83604v -15.3303h 5.83604v -19.1284h 5.83604v -25.0599h 5.83604v -6.97382h 5.83604v -27.4162h 5.83604v 3.4329h 5.83604v -1.89242h 5.83604v 1.89242h 5.83604v 17.6167h 5.83604v 4.61394h 5.83604v 16.7072h 5.83604v 12.4214h 5.83604v 26.978h
 5.83604v 26.6995h 5.83604v 28.3374h 5.83604v 46.8654h 5.83604v 60.7563h 5.83604v 14.2063h 5.83604v 61.9965h 5.83604v 131.102h 5.83604v 50.7174h 11.6721v -50.7174h 5.83604v 50.7174h 99.2126z" fill="#ff0000"/>
<path d="M85.5394,602.362h 93.3766v -50.7174h 5.83604v -50.7174h 5.83604v 50.7174h 5.83604v -101.435h 5.83604v -16.3273h 5.83604v -57.6912h 5.83604v -6.36659h 5.83604v -56.5741h 5.83604v -44.8607h 5.83604v -4.43588h 5.83604v -36.511h 5.83604v
 -33.6238h 5.83604v -15.3303h 5.83604v -19.1284h 5.83604v -25.0599h 5.83604v -6.97382h 5.83604v -27.4162h 5.83604v 3.4329h 5.83604v -1.89242h 5.83604v 1.89242h 5.83604v 17.6167h 5.83604v 4.61394h 5.83604v 16.7072h 5.83604v 12.4214h 5.83604v 26.978h
 5.83604v 26.6995h 5.83604v 28.3374h 5.83604v 46.8654h 5.83604v 60.7563h 5.83604v 14.2063h 5.83604v 61.9965h 5.83604v 131.102h 5.83604v 50.7174h 11.6721v -50.7174h 5.83604v 50.7174h 99.2126" fill="none" stroke="#ff0000" stroke-width="2"/>
<path d="M85.5394,602.362h 93.3766v -50.7174h 5.83604v -50.7174h 5.83604v 50.7174h 5.83604v -101.435h 5.83604v -16.3273h 5.83604v -50.7174h 5.83604v -6.97382h 5.83604v -62.9407h 5.83604v -43.3202h 5.83604v -5.97636h 5.83604v -34.7478h 5.83604v
 -35.387h 5.83604v -15.3303h 5.83604v -18.0906h 5.83604v -24.868h 5.83604v -8.20359h 5.83604v -26.65h 5.83604v 2.82665h 5.83604v -1.89651h 5.83604v 1.89651h 5.83604v 18.0691h 5.83604v 4.65398h 5.83604v 16.3273h 5.83604v 12.1489h 5.83604v 28.3896h
 5.83604v 25.2878h 5.83604v 28.3374h 5.83604v 46.8654h 5.83604v 65.1922h 5.83604v 9.77045h 5.83604v 61.9965h 5.83604v 131.102h 5.83604v 50.7174h 11.6721v -50.7174h 5.83604v 50.7174h 99.2126z" fill="#fefefe"/>
<path d="M85.5394,602.362h 93.3766v -50.7174h 5.83604v -50.7174h 5.83604v 50.7174h 5.83604v -101.435h 5.83604v -16.3273h 5.83604v -50.7174h 5.83604v -6.97382h 5.83604v -62.9407h 5.83604v -43.3202h 5.83604v -5.97636h 5.83604v -34.7478h 5.83604v
 -35.387h 5.83604v -15.3303h 5.83604v -18.0906h 5.83604v -24.868h 5.83604v -8.20359h 5.83604v -26.65h 5.83604v 2.82665h 5.83604v -1.89651h 5.83604v 1.89651h 5.83604v 18.0691h 5.83604v 4.65398h 5.83604v 16.3273h 5.83604v 12.1489h 5.83604v 28.3896h
 5.83604v 25.2878h 5.83604v 28.3374h 5.83604v 46.8654h 5.83604v 65.1922h 5.83604v 9.77045h 5.83604v 61.9965h 5.83604v 131.102h 5.83604v 50.7174h 11.6721v -50.7174h 5.83604v 50.7174h 99.2126" fill="none" stroke="#ff9933" stroke-width="2"/>
<path d="M85.5394,602.362h 93.3766v -50.7174h 5.83604v -50.7174h 5.83604v 50.7174h 5.83604v -101.435h 5.83604v -16.3273h 5.83604v -50.7174h 5.83604v -6.97382h 5.83604v -62.9407h 5.83604v -43.3202h 5.83604v -5.97636h 5.83604v -34.7478h 5.83604v
 -35.387h 5.83604v -15.3303h 5.83604v -18.0906h 5.83604v -24.868h 5.83604v -8.20359h 5.83604v -26.65h 5.83604v 2.82665h 5.83604v -1.89651h 5.83604v 1.89651h 5.83604v 18.0691h 5.83604v 4.65398h 5.83604v 16.3273h 5.83604v 12.1489h 5.83604v 28.3896h
 5.83604v 25.2878h 5.83604v 28.3374h 5.83604v 46.8654h 5.83604v 65.1922h 5.83604v 9.77045h 5.83604v 61.9965h 5.83604v 131.102h 5.83604v 50.7174h 11.6721v -50.7174h 5.83604v 50.7174h 99.2126" fill="none" stroke="#ff9933" stroke-width="2"/>
<path d="M85.5394,602.362h 93.3766v -50.7174h 5.83604v -50.7174h 5.83604v 50.7174h 5.83604v -101.435h 5.83604v -16.3273h 5.83604v -50.7174h 5.83604v -6.97382h 5.83604v -62.9407h 5.83604v -43.3202h 5.83604v -5.97636h 5.83604v -34.7478h 5.83604v
 -35.387h 5.83604v -15.3303h 5.83604v -18.0906h 5.83604v -24.868h 5.83604v -8.20359h 5.83604v -26.65h 5.83604v 2.82665h 5.83604v -1.89651h 5.83604v 1.89651h 5.83604v 18.0691h 5.83604v 4.65398h 5.83604v 16.3273h 5.83604v 12.1489h 5.83604v 28.3896h
 5.83604v 25.2878h 5.83604v 28.3374h 5.83604v 46.8654h 5.83604v 65.1922h 5.83604v 9.77045h 5.83604v 61.9965h 5.83604v 131.102h 5.83604v 50.7174h 11.6721v -50.7174h 5.83604v 50.7174h 99.2126z" fill="#ff9933"/>
<path d="M85.5394,602.362h 93.3766v -50.7174h 5.83604v -50.7174h 5.83604v 50.7174h 5.83604v -101.435h 5.83604v -16.3273h 5.83604v -50.7174h 5.83604v -6.97382h 5.83604v -62.9407h 5.83604v -43.3202h 5.83604v -5.97636h 5.83604v -34.7478h 5.83604v
 -35.387h 5.83604v -15.3303h 5.83604v -18.0906h 5.83604v -24.868h 5.83604v -8.20359h 5.83604v -26.65h 5.83604v 2.82665h 5.83604v -1.89651h 5.83604v 1.89651h 5.83604v 18.0691h 5.83604v 4.65398h 5.83604v 16.3273h 5.83604v 12.1489h 5.83604v 28.3896h
 5.83604v 25.2878h 5.83604v 28.3374h 5.83604v 46.8654h 5.83604v 65.1922h 5.83604v 9.77045h 5.83604v 61.9965h 5.83604v 131.102h 5.83604v 50.7174h 11.6721v -50.7174h 5.83604v 50.7174h 99.2126" fill="none" stroke="#ff9933" stroke-width="2"/>
<path d="M85.5394,602.362h 93.3766v -50.7174h 5.83604v -50.7174h 5.83604v 50.7174h 5.83604v -101.435h 5.83604v -16.3273h 5.83604v -50.7174h 11.6721v -67.0447h 5.83604v -43.0082h 5.83604v -4.72226h 5.83604v -35.5245h 5.83604v -35.0902h 5.83604v
 -15.6271h 5.83604v -20.697h 5.83604v -24.9219h 5.83604v -7.63372h 5.83604v -26.8191h 5.83604v 3.04584h 5.83604v -2.25651h 5.83604v 2.58463h 5.83604v 17.5711h 5.83604v 4.5274h 5.83604v 15.8286h 5.83604v 11.6482h 5.83604v 28.5433h 5.83604v 26.1661h
 5.83604v 26.9823h 5.83604v 46.8654h 5.83604v 69.9145h 5.83604v 5.04819h 5.83604v 61.9965h 5.83604v 131.102h 5.83604v 50.7174h 11.6721v -50.7174h 5.83604v 50.7174h 99.2126z" fill="#fefefe"/>
<path d="M85.5394,602.362h 93.3766v -50.7174h 5.83604v -50.7174h 5.83604v 50.7174h 5.83604v -101.435h 5.83604v -16.3273h 5.83604v -50.7174h 11.6721v -67.0447h 5.83604v -43.0082h 5.83604v -4.72226h 5.83604v -35.5245h 5.83604v -35.0902h 5.83604v
 -15.6271h 5.83604v -20.697h 5.83604v -24.9219h 5.83604v -7.63372h 5.83604v -26.8191h 5.83604v 3.04584h 5.83604v -2.25651h 5.83604v 2.58463h 5.83604v 17.5711h 5.83604v 4.5274h 5.83604v 15.8286h 5.83604v 11.6482h 5.83604v 28.5433h 5.83604v 26.1661h
 5.83604v 26.9823h 5.83604v 46.8654h 5.83604v 69.9145h 5.83604v 5.04819h 5.83604v 61.9965h 5.83604v 131.102h 5.83604v 50.7174h 11.6721v -50.7174h 5.83604v 50.7174h 99.2126" fill="none" stroke="#009900" stroke-width="2"/>
<path d="M85.5394,602.362h 93.3766v -50.7174h 5.83604v -50.7174h 5.83604v 50.7174h 5.83604v -101.435h 5.83604v -16.3273h 5.83604v -50.7174h 11.6721v -67.0447h 5.83604v -43.0082h 5.83604v -4.72226h 5.83604v -35.5245h 5.83604v -35.0902h 5.83604v
 -15.6271h 5.83604v -20.697h 5.83604v -24.9219h 5.83604v -7.63372h 5.83604v -26.8191h 5.83604v 3.04584h 5.83604v -2.25651h 5.83604v 2.58463h 5.83604v 17.5711h 5.83604v 4.5274h 5.83604v 15.8286h 5.83604v 11.6482h 5.83604v 28.5433h 5.83604v 26.1661h
 5.83604v 26.9823h 5.83604v 46.8654h 5.83604v 69.9145h 5.83604v 5.04819h 5.83604v 61.9965h 5.83604v 131.102h 5.83604v 50.7174h 11.6721v -50.7174h 5.83604v 50.7174h 99.2126" fill="none" stroke="#009900" stroke-width="2"/>
<path d="M85.5394,602.362h 93.3766v -50.7174h 5.83604v -50.7174h 5.83604v 50.7174h 5.83604v -101.435h 5.83604v -16.3273h 5.83604v -50.7174h 11.6721v -67.0447h 5.83604v -43.0082h 5.83604v -4.72226h 5.83604v -35.5245h 5.83604v -35.0902h 5.83604v
 -15.6271h 5.83604v -20.697h 5.83604v -24.9219h 5.83604v -7.63372h 5.83604v -26.8191h 5.83604v 3.04584h 5.83604v -2.25651h 5.83604v 2.58463h 5.83604v 17.5711h 5.83604v 4.5274h 5.83604v 15.8286h 5.83604v 11.6482h 5.83604v 28.5433h 5.83604v 26.1661h
 5.83604v 26.9823h 5.83604v 46.8654h 5.83604v 69.9145h 5.83604v 5.04819h 5.83604v 61.9965h 5.83604v 131.102h 5.83604v 50.7174h 11.6721v -50.7174h 5.83604v 50.7174h 99.2126z" fill="#009900"/>
<path d="M85.5394,602.362h 93.3766v -50.7174h 5.83604v -50.7174h 5.83604v 50.7174h 5.83604v -101.435h 5.83604v -16.3273h 5.83604v -50.7174h 11.6721v -67.0447h 5.83604v -43.0082h 5.83604v -4.72226h 5.83604v -35.5245h 5.83604v -35.0902h 5.83604v
 -15.6271h 5.83604v -20.697h 5.83604v -24.9219h 5.83604v -7.63372h 5.83604v -26.8191h 5.83604v 3.04584h 5.83604v -2.25651h 5.83604v 2.58463h 5.83604v 17.5711h 5.83604v 4.5274h 5.83604v 15.8286h 5.83604v 11.6482h 5.83604v 28.5433h 5.83604v 26.1661h
 5.83604v 26.9823h 5.83604v 46.8654h 5.83604v 69.9145h 5.83604v 5.04819h 5.83604v 61.9965h 5.83604v 131.102h 5.83604v 50.7174h 11.6721v -50.7174h 5.83604v 50.7174h 99.2126" fill="none" stroke="#009900" stroke-width="2"/>
<text x="160.657" y="76.5354" fill="black" font-size="10.9024" font-family="Helvetica" font-weight="bold">
 = 2.14
</text>
<text x="153.571" y="76.5354" fill="black" font-size="10.9024" font-family="Times">
&#0963;
</text>
<text x="119.555" y="76.5354" fill="black" font-size="10.9024" font-family="Helvetica" font-weight="bold">
 = 47.1 
</text>
<text x="113.886" y="76.5354" fill="black" font-size="10.9024" font-family="Times">
&#0956;
</text>
<text x="94.0433" y="76.5354" fill="black" font-size="10.9024" font-family="Helvetica" font-weight="bold">
All: 
</text>
<text x="94.0433" y="93.5433" fill="black" font-size="10.9024" font-family="Helvetica" font-weight="bold">
  UF = 1, OF = 0
</text>
<text x="162.075" y="111.969" fill="black" font-size="10.9024" font-family="Helvetica" font-weight="bold">
 = 2.14
</text>
<text x="154.988" y="111.969" fill="black" font-size="10.9024" font-family="Times">
&#0963;
</text>
<text x="120.972" y="111.969" fill="black" font-size="10.9024" font-family="Helvetica" font-weight="bold">
 = 47.1 
</text>
<text x="115.303" y="111.969" fill="black" font-size="10.9024" font-family="Times">
&#0956;
</text>
<text x="94.0433" y="111.969" fill="black" font-size="10.9024" font-family="Helvetica" font-weight="bold">
AB: 
</text>
<text x="94.0433" y="128.976" fill="black" font-size="10.9024" font-family="Helvetica" font-weight="bold">
  UF = 0, OF = 0
</text>
<text x="160.657" y="147.402" fill="black" font-size="10.9024" font-family="Helvetica" font-weight="bold">
 = 2.64
</text>
<text x="153.571" y="147.402" fill="black" font-size="10.9024" font-family="Times">
&#0963;
</text>
<text x="113.886" y="147.402" fill="black" font-size="10.9024" font-family="Helvetica" font-weight="bold">
 = 46.51 
</text>
<text x="108.217" y="147.402" fill="black" font-size="10.9024" font-family="Times">
&#0956;
</text>
<text x="94.0433" y="147.402" fill="black" font-size="10.9024" font-family="Helvetica" font-weight="bold">
C: 
</text>
<text x="94.0433" y="164.409" fill="black" font-size="10.9024" font-family="Helvetica" font-weight="bold">
  UF = 1, OF = 0
</text>
<text x="85.5394" y="34.1552" fill="black" font-size="18.7041" font-family="Helvetica" font-weight="bold">
Mean: 47, RMS: 2.14, Gauss-fit sigma: 2.11
</text>
<text x="408.689" y="78.9179" fill="#009900" font-size="16.1036" font-family="Helvetica" font-weight="bold">
Grade A
</text>
<text x="408.689" y="93.0911" fill="#ff9933" font-size="16.1036" font-family="Helvetica" font-weight="bold">
Grade B
</text>
<text x="408.689" y="107.264" fill="#ff0000" font-size="16.1036" font-family="Helvetica" font-weight="bold">
Grade C
</text></svg>
