<?xml version="1.0" standalone="no"?>
<svg width="567" height="709" viewBox="0 0 567 709" xmlns="http://www.w3.org/2000/svg">
<title>
/home/production/dataL1/Overview/ProductionOverview/ProductionOverviewPage_Total/XrayNoisePerPixel/XrayNoisePerPixel.svg
</title>
<desc>
Creator: ROOT Version 5.34/04
CreationDate: Tue Nov 15 16:08:07 2016</desc>
<defs>
</defs>
<rect x="0" y="0" width="567" height="709" fill="#fefefe"/>
<rect x="85" y="53" width="397" height="550" fill="none" stroke="black"/>
<rect x="85" y="53" width="397" height="550" fill="none" stroke="black"/>
<rect x="85" y="53" width="397" height="550" fill="none" stroke="black"/>
<rect x="85" y="53" width="397" height="550" fill="none" stroke="black"/>
<path d="M86,601v -76h 3v -16h 5v 9h 4v -24h 4v -19h 5v -16h 4v -16h 5v -8h 4v -6h 4v -13h 5v -14h 4v -20h 4v -18h 5v -18h 4v -21h 4v -18h 5v -20h 4v -25h 5v -15h 4v -20h 4v -19h 5v -17h 4v -17h 4v -14h 5v -13h 4v -11h 4v -10h 5v -7h 4v -5h 5v -3h 4v
 -2h 9v 1h 4v 3h 4v 4h 5v 5h 4v 7h 4v 6h 5v 8h 4v 8h 4v 8h 5v 10h 4v 10h 5v 9h 4v 11h 4v 9h 5v 10h 4v 11h 4v 9h 5v 11h 4v 10h 4v 11h 5v 8h 4v 10h 5v 10h 4v 9h 4v 9h 5v 10h 4v 9h 4v 8h 5v 10h 4v 7h 4v 8h 5v 8h 4v 9h 5v 8h 4v 9h 4v 7h 5v 8h 4v 6h 4v 6h
 5v 7h 4v 7h 4v 7h 5v 5h 4v 9h 4v 7h 5v 5h 4v 5h 5v 7h 4v 5h 4v 6h 5v 8h 4v 3h 4v 5h 5v 8h 4v 4h 4v 5h 5v 7h 4v 3h 5v 1h 4" fill="none" stroke="black" stroke-width="2"/>
<path d="M85,603h 397" fill="none" stroke="black"/>
<text x="235" y="649" fill="black" font-size="21" font-family="Helvetica" font-weight="bold">
Noise [e-]
</text>
<path d="M85,588v 15" fill="none" stroke="black"/>
<path d="M94,595v 8" fill="none" stroke="black"/>
<path d="M102,595v 8" fill="none" stroke="black"/>
<path d="M111,595v 8" fill="none" stroke="black"/>
<path d="M120,595v 8" fill="none" stroke="black"/>
<path d="M129,588v 15" fill="none" stroke="black"/>
<path d="M137,595v 8" fill="none" stroke="black"/>
<path d="M146,595v 8" fill="none" stroke="black"/>
<path d="M155,595v 8" fill="none" stroke="black"/>
<path d="M164,595v 8" fill="none" stroke="black"/>
<path d="M172,588v 15" fill="none" stroke="black"/>
<path d="M181,595v 8" fill="none" stroke="black"/>
<path d="M190,595v 8" fill="none" stroke="black"/>
<path d="M198,595v 8" fill="none" stroke="black"/>
<path d="M207,595v 8" fill="none" stroke="black"/>
<path d="M216,588v 15" fill="none" stroke="black"/>
<path d="M225,595v 8" fill="none" stroke="black"/>
<path d="M233,595v 8" fill="none" stroke="black"/>
<path d="M242,595v 8" fill="none" stroke="black"/>
<path d="M251,595v 8" fill="none" stroke="black"/>
<path d="M259,588v 15" fill="none" stroke="black"/>
<path d="M268,595v 8" fill="none" stroke="black"/>
<path d="M277,595v 8" fill="none" stroke="black"/>
<path d="M286,595v 8" fill="none" stroke="black"/>
<path d="M294,595v 8" fill="none" stroke="black"/>
<path d="M303,588v 15" fill="none" stroke="black"/>
<path d="M312,595v 8" fill="none" stroke="black"/>
<path d="M321,595v 8" fill="none" stroke="black"/>
<path d="M329,595v 8" fill="none" stroke="black"/>
<path d="M338,595v 8" fill="none" stroke="black"/>
<path d="M347,588v 15" fill="none" stroke="black"/>
<path d="M355,595v 8" fill="none" stroke="black"/>
<path d="M364,595v 8" fill="none" stroke="black"/>
<path d="M373,595v 8" fill="none" stroke="black"/>
<path d="M382,595v 8" fill="none" stroke="black"/>
<path d="M390,588v 15" fill="none" stroke="black"/>
<path d="M399,595v 8" fill="none" stroke="black"/>
<path d="M408,595v 8" fill="none" stroke="black"/>
<path d="M416,595v 8" fill="none" stroke="black"/>
<path d="M425,595v 8" fill="none" stroke="black"/>
<path d="M434,588v 15" fill="none" stroke="black"/>
<path d="M443,595v 8" fill="none" stroke="black"/>
<path d="M451,595v 8" fill="none" stroke="black"/>
<path d="M460,595v 8" fill="none" stroke="black"/>
<path d="M469,595v 8" fill="none" stroke="black"/>
<path d="M478,588v 15" fill="none" stroke="black"/>
<path d="M478,588v 15" fill="none" stroke="black"/>
<text x="81" y="627" fill="black" font-size="16" font-family="Helvetica" font-weight="bold">
0
</text>
<text x="115" y="627" fill="black" font-size="16" font-family="Helvetica" font-weight="bold">
100
</text>
<text x="159" y="627" fill="black" font-size="16" font-family="Helvetica" font-weight="bold">
200
</text>
<text x="203" y="627" fill="black" font-size="16" font-family="Helvetica" font-weight="bold">
300
</text>
<text x="247" y="627" fill="black" font-size="16" font-family="Helvetica" font-weight="bold">
400
</text>
<text x="289" y="627" fill="black" font-size="16" font-family="Helvetica" font-weight="bold">
500
</text>
<text x="333" y="627" fill="black" font-size="16" font-family="Helvetica" font-weight="bold">
600
</text>
<text x="377" y="627" fill="black" font-size="16" font-family="Helvetica" font-weight="bold">
700
</text>
<text x="421" y="627" fill="black" font-size="16" font-family="Helvetica" font-weight="bold">
800
</text>
<text x="463" y="627" fill="black" font-size="16" font-family="Helvetica" font-weight="bold">
900
</text>
<path d="M85,53h 397" fill="none" stroke="black"/>
<path d="M85,68v -15" fill="none" stroke="black"/>
<path d="M94,61v -8" fill="none" stroke="black"/>
<path d="M102,61v -8" fill="none" stroke="black"/>
<path d="M111,61v -8" fill="none" stroke="black"/>
<path d="M120,61v -8" fill="none" stroke="black"/>
<path d="M129,68v -15" fill="none" stroke="black"/>
<path d="M137,61v -8" fill="none" stroke="black"/>
<path d="M146,61v -8" fill="none" stroke="black"/>
<path d="M155,61v -8" fill="none" stroke="black"/>
<path d="M164,61v -8" fill="none" stroke="black"/>
<path d="M172,68v -15" fill="none" stroke="black"/>
<path d="M181,61v -8" fill="none" stroke="black"/>
<path d="M190,61v -8" fill="none" stroke="black"/>
<path d="M198,61v -8" fill="none" stroke="black"/>
<path d="M207,61v -8" fill="none" stroke="black"/>
<path d="M216,68v -15" fill="none" stroke="black"/>
<path d="M225,61v -8" fill="none" stroke="black"/>
<path d="M233,61v -8" fill="none" stroke="black"/>
<path d="M242,61v -8" fill="none" stroke="black"/>
<path d="M251,61v -8" fill="none" stroke="black"/>
<path d="M259,68v -15" fill="none" stroke="black"/>
<path d="M268,61v -8" fill="none" stroke="black"/>
<path d="M277,61v -8" fill="none" stroke="black"/>
<path d="M286,61v -8" fill="none" stroke="black"/>
<path d="M294,61v -8" fill="none" stroke="black"/>
<path d="M303,68v -15" fill="none" stroke="black"/>
<path d="M312,61v -8" fill="none" stroke="black"/>
<path d="M321,61v -8" fill="none" stroke="black"/>
<path d="M329,61v -8" fill="none" stroke="black"/>
<path d="M338,61v -8" fill="none" stroke="black"/>
<path d="M347,68v -15" fill="none" stroke="black"/>
<path d="M355,61v -8" fill="none" stroke="black"/>
<path d="M364,61v -8" fill="none" stroke="black"/>
<path d="M373,61v -8" fill="none" stroke="black"/>
<path d="M382,61v -8" fill="none" stroke="black"/>
<path d="M390,68v -15" fill="none" stroke="black"/>
<path d="M399,61v -8" fill="none" stroke="black"/>
<path d="M408,61v -8" fill="none" stroke="black"/>
<path d="M416,61v -8" fill="none" stroke="black"/>
<path d="M425,61v -8" fill="none" stroke="black"/>
<path d="M434,68v -15" fill="none" stroke="black"/>
<path d="M443,61v -8" fill="none" stroke="black"/>
<path d="M451,61v -8" fill="none" stroke="black"/>
<path d="M460,61v -8" fill="none" stroke="black"/>
<path d="M469,61v -8" fill="none" stroke="black"/>
<path d="M478,68v -15" fill="none" stroke="black"/>
<path d="M478,68v -15" fill="none" stroke="black"/>
<path d="M85,603v -550" fill="none" stroke="black"/>
<g transform="rotate(-90,50,396)">
<text x="50" y="396" fill="black" font-size="21" font-family="Helvetica" font-weight="bold">
No. of Entries
</text>
</g>
<path d="M92,565h -7" fill="none" stroke="black"/>
<path d="M92,530h -7" fill="none" stroke="black"/>
<path d="M92,505h -7" fill="none" stroke="black"/>
<path d="M92,486h -7" fill="none" stroke="black"/>
<path d="M92,470h -7" fill="none" stroke="black"/>
<path d="M92,457h -7" fill="none" stroke="black"/>
<path d="M92,445h -7" fill="none" stroke="black"/>
<path d="M92,435h -7" fill="none" stroke="black"/>
<path d="M98,426h -13" fill="none" stroke="black"/>
<text x="72" y="426" fill="black" font-size="10" font-family="Helvetica" font-weight="bold">
4
</text>
<text x="55" y="433" fill="black" font-size="16" font-family="Helvetica" font-weight="bold">
10
</text>
<path d="M92,366h -7" fill="none" stroke="black"/>
<path d="M92,331h -7" fill="none" stroke="black"/>
<path d="M92,306h -7" fill="none" stroke="black"/>
<path d="M92,287h -7" fill="none" stroke="black"/>
<path d="M92,271h -7" fill="none" stroke="black"/>
<path d="M92,257h -7" fill="none" stroke="black"/>
<path d="M92,246h -7" fill="none" stroke="black"/>
<path d="M92,236h -7" fill="none" stroke="black"/>
<path d="M98,227h -13" fill="none" stroke="black"/>
<text x="72" y="224" fill="black" font-size="10" font-family="Helvetica" font-weight="bold">
5
</text>
<text x="55" y="233" fill="black" font-size="16" font-family="Helvetica" font-weight="bold">
10
</text>
<path d="M92,166h -7" fill="none" stroke="black"/>
<path d="M92,131h -7" fill="none" stroke="black"/>
<path d="M92,106h -7" fill="none" stroke="black"/>
<path d="M92,87h -7" fill="none" stroke="black"/>
<path d="M92,71h -7" fill="none" stroke="black"/>
<path d="M92,58h -7" fill="none" stroke="black"/>
<path d="M482,603v -550" fill="none" stroke="black"/>
<path d="M475,565h 7" fill="none" stroke="black"/>
<path d="M475,530h 7" fill="none" stroke="black"/>
<path d="M475,505h 7" fill="none" stroke="black"/>
<path d="M475,486h 7" fill="none" stroke="black"/>
<path d="M475,470h 7" fill="none" stroke="black"/>
<path d="M475,457h 7" fill="none" stroke="black"/>
<path d="M475,445h 7" fill="none" stroke="black"/>
<path d="M475,435h 7" fill="none" stroke="black"/>
<path d="M469,426h 13" fill="none" stroke="black"/>
<path d="M475,366h 7" fill="none" stroke="black"/>
<path d="M475,331h 7" fill="none" stroke="black"/>
<path d="M475,306h 7" fill="none" stroke="black"/>
<path d="M475,287h 7" fill="none" stroke="black"/>
<path d="M475,271h 7" fill="none" stroke="black"/>
<path d="M475,257h 7" fill="none" stroke="black"/>
<path d="M475,246h 7" fill="none" stroke="black"/>
<path d="M475,236h 7" fill="none" stroke="black"/>
<path d="M469,227h 13" fill="none" stroke="black"/>
<path d="M475,166h 7" fill="none" stroke="black"/>
<path d="M475,131h 7" fill="none" stroke="black"/>
<path d="M475,106h 7" fill="none" stroke="black"/>
<path d="M475,87h 7" fill="none" stroke="black"/>
<path d="M475,71h 7" fill="none" stroke="black"/>
<path d="M475,58h 7" fill="none" stroke="black"/>
<text x="381" y="83" fill="black" font-size="13" font-family="Helvetica" font-weight="bold">
=113.13
</text>
<text x="373" y="83" fill="black" font-size="13" font-family="Times">
&#0963;
</text>
<text x="317" y="83" fill="black" font-size="13" font-family="Helvetica" font-weight="bold">
=344.25, 
</text>
<text x="309" y="83" fill="black" font-size="13" font-family="Times">
&#0956;
</text>
<text x="283" y="83" fill="black" font-size="13" font-family="Helvetica" font-weight="bold">
All: 
</text>
<text x="283" y="97" fill="black" font-size="13" font-family="Helvetica" font-weight="bold">
N=8785920 UF=168002, OF=76891
</text>
<path d="M86,601v -73h 3v -18h 5v 9h 4v -23h 4v -20h 5v -16h 4v -15h 5v -7h 4v -7h 4v -13h 5v -15h 4v -19h 4v -18h 5v -19h 4v -20h 4v -18h 5v -20h 4v -24h 5v -16h 4v -20h 4v -18h 5v -18h 4v -17h 4v -14h 5v -13h 4v -11h 4v -9h 5v -7h 4v -5h 5v -4h 4v
 -1h 9v 1h 4v 3h 4v 5h 5v 5h 4v 6h 4v 7h 5v 8h 4v 8h 4v 8h 5v 10h 4v 9h 5v 10h 4v 10h 4v 9h 5v 11h 4v 10h 4v 10h 5v 10h 4v 10h 4v 11h 5v 9h 4v 9h 5v 10h 4v 9h 4v 9h 5v 10h 4v 9h 4v 8h 5v 10h 4v 7h 4v 8h 5v 8h 4v 9h 5v 8h 4v 9h 4v 7h 5v 8h 4v 6h 4v 6h
 5v 7h 4v 7h 4v 7h 5v 5h 4v 9h 4v 7h 5v 5h 4v 5h 5v 7h 4v 5h 4v 6h 5v 8h 4v 4h 4v 4h 5v 8h 4v 3h 4v 6h 5v 7h 4v 3h 5v 1h 4" fill="none" stroke="#009900" stroke-width="2"/>
<text x="374" y="111" fill="#009900" font-size="13" font-family="Helvetica" font-weight="bold">
=117.23
</text>
<text x="366" y="111" fill="#009900" font-size="13" font-family="Times">
&#0963;
</text>
<text x="310" y="111" fill="#009900" font-size="13" font-family="Helvetica" font-weight="bold">
=345.18, 
</text>
<text x="302" y="111" fill="#009900" font-size="13" font-family="Times">
&#0956;
</text>
<text x="283" y="111" fill="#009900" font-size="13" font-family="Helvetica" font-weight="bold">
A: 
</text>
<text x="283" y="125" fill="#009900" font-size="13" font-family="Helvetica" font-weight="bold">
N=8486400 UF=156088, OF=72866
</text>
<path d="M86,601h 91v -5h 4v -19h 4v -20h 5v -15h 4v -10h 4v -15h 5v -6h 4v -10h 5v -5h 4v -4h 4v -3h 5v -3h 4v 1h 4v 1h 5v 1h 4v 5h 4v 3h 5v 8h 4v 8h 4v 5h 5v 12h 4v 8h 5v 9h 4v 12h 4v 14h 5v 7h 4v 9h 4v 11h 5v 1h 183" fill="none" stroke="#ff9933"
 stroke-width="2"/>
<text x="374" y="139" fill="#ff9933" font-size="13" font-family="Helvetica" font-weight="bold">
=114.17
</text>
<text x="366" y="139" fill="#ff9933" font-size="13" font-family="Times">
&#0963;
</text>
<text x="310" y="139" fill="#ff9933" font-size="13" font-family="Helvetica" font-weight="bold">
=361.47, 
</text>
<text x="302" y="139" fill="#ff9933" font-size="13" font-family="Times">
&#0956;
</text>
<text x="283" y="139" fill="#ff9933" font-size="13" font-family="Helvetica" font-weight="bold">
B: 
</text>
<text x="283" y="153" fill="#ff9933" font-size="13" font-family="Helvetica" font-weight="bold">
N=112320 UF=1174, OF=1039
</text>
<path d="M86,601h 82v -9h 4v -15h 5v -19h 4v -11h 4v -14h 5v -14h 4v -10h 4v -10h 5v -12h 4v -12h 5v -5h 4v -8h 4v -8h 5v -4h 4v -6h 4v -3h 5v -1h 4v 4h 4v 3h 5v 4h 4v 8h 4v 10h 5v 8h 4v 14h 5v 9h 4v 14h 4v 9h 5v 16h 4v 11h 4v 10h 5v 14h 4v 11h 4v
 14h 5v 2h 170" fill="none" stroke="#ff0000" stroke-width="2"/>
<text x="374" y="168" fill="#ff0000" font-size="13" font-family="Helvetica" font-weight="bold">
=111.89
</text>
<text x="366" y="168" fill="#ff0000" font-size="13" font-family="Times">
&#0963;
</text>
<text x="310" y="168" fill="#ff0000" font-size="13" font-family="Helvetica" font-weight="bold">
=364.96, 
</text>
<text x="302" y="168" fill="#ff0000" font-size="13" font-family="Times">
&#0956;
</text>
<text x="283" y="168" fill="#ff0000" font-size="13" font-family="Helvetica" font-weight="bold">
C: 
</text>
<text x="283" y="182" fill="#ff0000" font-size="13" font-family="Helvetica" font-weight="bold">
N=187200 UF=10740, OF=2986
</text>
<rect x="6" y="4" width="397" height="35" fill="white"/>
<text x="298" y="29" fill="black" font-size="22" font-family="Helvetica" font-weight="bold">
) C0 250
</text>
<text x="292" y="15" fill="black" font-size="15" font-family="Helvetica" font-weight="bold">
-
</text>
<text x="24" y="29" fill="black" font-size="22" font-family="Helvetica" font-weight="bold">
S-Curve widths: Noise (e
</text>
<text x="85" y="45" fill="black" font-size="16" font-family="Helvetica" font-weight="bold">
#roc: 2112,  #pix: 8785920
</text>
<path d="M259,603v -550" fill="none" stroke="#ff0000" stroke-dasharray=" 3, 3"/></svg>
