<?xml version="1.0" standalone="no"?>
<svg width="567.429" height="709.161" viewBox="0 0 567.429 709.161" xmlns="http://www.w3.org/2000/svg">
<title>
/mnt/sdb1/Overview//ProductionOverview/ProductionOverviewPage_Total/XrayNoisePerPixel/XrayNoisePerPixel.svg
</title>
<desc>
Creator: ROOT Version 5.34/34
CreationDate: Tue Oct 11 22:39:26 2016</desc>
<defs>
</defs>
<rect x="0.5" y="0" width="566.929" height="708.661" fill="#fefefe"/>
<rect x="85.5394" y="53.1496" width="396.85" height="549.213" fill="none" stroke="black"/>
<rect x="85.5394" y="53.1496" width="396.85" height="549.213" fill="none" stroke="black"/>
<rect x="85.5394" y="53.1496" width="396.85" height="549.213" fill="none" stroke="black"/>
<rect x="85.5394" y="53.1496" width="396.85" height="549.213" fill="none" stroke="black"/>
<path d="M86.9567,600.945v -136.043h 2.99213v 49.4769h 4.40945v -2.54206h 4.40945v -17.0289h 4.40945v -11.328h 4.40945v 17.8816h 4.40945v -26.3829h 4.40945v -41.3825h 4.40945v -26.5414h 4.40945v -52.7911h 4.40945v -61.8351h 4.40945v -61.8728h
 4.40945v -56.1652h 4.40945v -45.6256h 4.40945v -31.8317h 4.40945v -17.7296h 4.40945v -4.13222h 4.40945v 8.4744h 4.40945v 19.1868h 4.40945v 27.1616h 4.40945v 31.1299h 4.40945v 31.3367h 4.40945v 29.6442h 4.40945v 28.987h 4.40945v 27.4264h 4.40945v
 24.1643h 4.40945v 18.0614h 4.40945v 10.8493h 4.40945v 8.20748h 4.40945v 6.02782h 4.40945v 4.73814h 4.40945v 2.46024h 4.40945v 2.26629h 4.40945v 2.01913h 4.40945v 1.09776h 4.40945v 1.22064h 4.40945v 0.967148h 4.40945v 2.27331h 4.40945v 0.835896h
 4.40945v 3.74452h 4.40945v 5.67097h 4.40945v 0.999374h 4.40945v 6.27167h 4.40945v 1.02081h 4.40945v 6.13426h 4.40945v 7.23302h 4.40945v 5.67912h 4.40945v 3.70925h 4.40945v 7.02489h 4.40945v 6.4103h 4.40945v 3.45782h 4.40945v 11.1627h 8.8189v
 4.07021h 4.40945v 12.1962h 4.40945v 8.23736h 8.8189v 2.54206h 4.40945v 5.73032h 4.40945v -0.618074h 4.40945v 10.6947h 4.40945v -9.44723h 4.40945v 7.81348h 4.40945v 1.63375h 4.40945v -2.42234h 4.40945v 14.3004h 4.40945v 9.47609h 4.40945v 13.1375h
 4.40945v -14.6623h 4.40945v 6.55361h 8.8189v 22.017h 4.40945v 3.6141h 4.40945v -12.6138h 4.40945v 40.4304h 4.40945v -23.7765h 4.40945v -25.856h 4.40945v 9.20204h 4.40945v -7.12248h 4.40945v 33.6446h 4.40945v 23.7765h 4.40945v -9.86812h 4.40945v
 -31.4308h 4.40945v 12.2347h 4.40945v 11.5417h 4.40945v 17.5224h 4.40945v -23.7765h 4.40945v 37.6848h 8.8189v -13.9083h 4.40945" fill="none" stroke="black" stroke-width="2"/>
<path d="M85.5394,602.362h 396.85" fill="none" stroke="black"/>
<text x="235.776" y="649.134" fill="black" font-size="21.3047" font-family="Helvetica" font-weight="bold">
Noise [e-]
</text>
<path d="M85.5394,587.48v 14.8819" fill="none" stroke="black"/>
<path d="M94.3583,594.921v 7.44094" fill="none" stroke="black"/>
<path d="M103.177,594.921v 7.44094" fill="none" stroke="black"/>
<path d="M111.996,594.921v 7.44094" fill="none" stroke="black"/>
<path d="M120.815,594.921v 7.44094" fill="none" stroke="black"/>
<path d="M129.634,587.48v 14.8819" fill="none" stroke="black"/>
<path d="M138.453,594.921v 7.44094" fill="none" stroke="black"/>
<path d="M147.272,594.921v 7.44094" fill="none" stroke="black"/>
<path d="M156.091,594.921v 7.44094" fill="none" stroke="black"/>
<path d="M164.909,594.921v 7.44094" fill="none" stroke="black"/>
<path d="M173.728,587.48v 14.8819" fill="none" stroke="black"/>
<path d="M182.547,594.921v 7.44094" fill="none" stroke="black"/>
<path d="M191.366,594.921v 7.44094" fill="none" stroke="black"/>
<path d="M200.185,594.921v 7.44094" fill="none" stroke="black"/>
<path d="M209.004,594.921v 7.44094" fill="none" stroke="black"/>
<path d="M217.823,587.48v 14.8819" fill="none" stroke="black"/>
<path d="M226.642,594.921v 7.44094" fill="none" stroke="black"/>
<path d="M235.461,594.921v 7.44094" fill="none" stroke="black"/>
<path d="M244.28,594.921v 7.44094" fill="none" stroke="black"/>
<path d="M253.098,594.921v 7.44094" fill="none" stroke="black"/>
<path d="M261.917,587.48v 14.8819" fill="none" stroke="black"/>
<path d="M270.736,594.921v 7.44094" fill="none" stroke="black"/>
<path d="M279.555,594.921v 7.44094" fill="none" stroke="black"/>
<path d="M288.374,594.921v 7.44094" fill="none" stroke="black"/>
<path d="M297.193,594.921v 7.44094" fill="none" stroke="black"/>
<path d="M306.012,587.48v 14.8819" fill="none" stroke="black"/>
<path d="M314.831,594.921v 7.44094" fill="none" stroke="black"/>
<path d="M323.65,594.921v 7.44094" fill="none" stroke="black"/>
<path d="M332.469,594.921v 7.44094" fill="none" stroke="black"/>
<path d="M341.287,594.921v 7.44094" fill="none" stroke="black"/>
<path d="M350.106,587.48v 14.8819" fill="none" stroke="black"/>
<path d="M358.925,594.921v 7.44094" fill="none" stroke="black"/>
<path d="M367.744,594.921v 7.44094" fill="none" stroke="black"/>
<path d="M376.563,594.921v 7.44094" fill="none" stroke="black"/>
<path d="M385.382,594.921v 7.44094" fill="none" stroke="black"/>
<path d="M394.201,587.48v 14.8819" fill="none" stroke="black"/>
<path d="M403.02,594.921v 7.44094" fill="none" stroke="black"/>
<path d="M411.839,594.921v 7.44094" fill="none" stroke="black"/>
<path d="M420.657,594.921v 7.44094" fill="none" stroke="black"/>
<path d="M429.476,594.921v 7.44094" fill="none" stroke="black"/>
<path d="M438.295,587.48v 14.8819" fill="none" stroke="black"/>
<path d="M447.114,594.921v 7.44094" fill="none" stroke="black"/>
<path d="M455.933,594.921v 7.44094" fill="none" stroke="black"/>
<path d="M464.752,594.921v 7.44094" fill="none" stroke="black"/>
<path d="M473.571,594.921v 7.44094" fill="none" stroke="black"/>
<path d="M482.39,587.48v 14.8819" fill="none" stroke="black"/>
<text x="81.2874" y="626.457" fill="black" font-size="16.1036" font-family="Helvetica" font-weight="bold">
0
</text>
<text x="116.72" y="626.457" fill="black" font-size="16.1036" font-family="Helvetica" font-weight="bold">
100
</text>
<text x="160.657" y="626.457" fill="black" font-size="16.1036" font-family="Helvetica" font-weight="bold">
200
</text>
<text x="204.594" y="626.457" fill="black" font-size="16.1036" font-family="Helvetica" font-weight="bold">
300
</text>
<text x="248.531" y="626.457" fill="black" font-size="16.1036" font-family="Helvetica" font-weight="bold">
400
</text>
<text x="292.469" y="626.457" fill="black" font-size="16.1036" font-family="Helvetica" font-weight="bold">
500
</text>
<text x="336.406" y="626.457" fill="black" font-size="16.1036" font-family="Helvetica" font-weight="bold">
600
</text>
<text x="380.343" y="626.457" fill="black" font-size="16.1036" font-family="Helvetica" font-weight="bold">
700
</text>
<text x="424.28" y="626.457" fill="black" font-size="16.1036" font-family="Helvetica" font-weight="bold">
800
</text>
<text x="469.634" y="626.457" fill="black" font-size="16.1036" font-family="Helvetica" font-weight="bold">
900
</text>
<path d="M85.5394,53.1496h 396.85" fill="none" stroke="black"/>
<path d="M85.5394,68.0315v -14.8819" fill="none" stroke="black"/>
<path d="M94.3583,60.5905v -7.44094" fill="none" stroke="black"/>
<path d="M103.177,60.5905v -7.44094" fill="none" stroke="black"/>
<path d="M111.996,60.5905v -7.44094" fill="none" stroke="black"/>
<path d="M120.815,60.5905v -7.44094" fill="none" stroke="black"/>
<path d="M129.634,68.0315v -14.8819" fill="none" stroke="black"/>
<path d="M138.453,60.5905v -7.44094" fill="none" stroke="black"/>
<path d="M147.272,60.5905v -7.44094" fill="none" stroke="black"/>
<path d="M156.091,60.5905v -7.44094" fill="none" stroke="black"/>
<path d="M164.909,60.5905v -7.44094" fill="none" stroke="black"/>
<path d="M173.728,68.0315v -14.8819" fill="none" stroke="black"/>
<path d="M182.547,60.5905v -7.44094" fill="none" stroke="black"/>
<path d="M191.366,60.5905v -7.44094" fill="none" stroke="black"/>
<path d="M200.185,60.5905v -7.44094" fill="none" stroke="black"/>
<path d="M209.004,60.5905v -7.44094" fill="none" stroke="black"/>
<path d="M217.823,68.0315v -14.8819" fill="none" stroke="black"/>
<path d="M226.642,60.5905v -7.44094" fill="none" stroke="black"/>
<path d="M235.461,60.5905v -7.44094" fill="none" stroke="black"/>
<path d="M244.28,60.5905v -7.44094" fill="none" stroke="black"/>
<path d="M253.098,60.5905v -7.44094" fill="none" stroke="black"/>
<path d="M261.917,68.0315v -14.8819" fill="none" stroke="black"/>
<path d="M270.736,60.5905v -7.44094" fill="none" stroke="black"/>
<path d="M279.555,60.5905v -7.44094" fill="none" stroke="black"/>
<path d="M288.374,60.5905v -7.44094" fill="none" stroke="black"/>
<path d="M297.193,60.5905v -7.44094" fill="none" stroke="black"/>
<path d="M306.012,68.0315v -14.8819" fill="none" stroke="black"/>
<path d="M314.831,60.5905v -7.44094" fill="none" stroke="black"/>
<path d="M323.65,60.5905v -7.44094" fill="none" stroke="black"/>
<path d="M332.469,60.5905v -7.44094" fill="none" stroke="black"/>
<path d="M341.287,60.5905v -7.44094" fill="none" stroke="black"/>
<path d="M350.106,68.0315v -14.8819" fill="none" stroke="black"/>
<path d="M358.925,60.5905v -7.44094" fill="none" stroke="black"/>
<path d="M367.744,60.5905v -7.44094" fill="none" stroke="black"/>
<path d="M376.563,60.5905v -7.44094" fill="none" stroke="black"/>
<path d="M385.382,60.5905v -7.44094" fill="none" stroke="black"/>
<path d="M394.201,68.0315v -14.8819" fill="none" stroke="black"/>
<path d="M403.02,60.5905v -7.44094" fill="none" stroke="black"/>
<path d="M411.839,60.5905v -7.44094" fill="none" stroke="black"/>
<path d="M420.657,60.5905v -7.44094" fill="none" stroke="black"/>
<path d="M429.476,60.5905v -7.44094" fill="none" stroke="black"/>
<path d="M438.295,68.0315v -14.8819" fill="none" stroke="black"/>
<path d="M447.114,60.5905v -7.44094" fill="none" stroke="black"/>
<path d="M455.933,60.5905v -7.44094" fill="none" stroke="black"/>
<path d="M464.752,60.5905v -7.44094" fill="none" stroke="black"/>
<path d="M473.571,60.5905v -7.44094" fill="none" stroke="black"/>
<path d="M482.39,68.0315v -14.8819" fill="none" stroke="black"/>
<path d="M85.5394,602.362v -549.213" fill="none" stroke="black"/>
<g transform="rotate(-90,50.1063,395.433)">
<text x="50.1063" y="395.433" fill="black" font-size="21.3047" font-family="Helvetica" font-weight="bold">
No. of Entries
</text>
</g>
<path d="M98.7205,602.362h -13.1811" fill="none" stroke="black"/>
<text x="78.5094" y="610.414" text-anchor="end" fill="black" font-size="16.1036" font-family="Helvetica" font-weight="bold">
1
</text>
<path d="M92.1299,578.586h -6.59055" fill="none" stroke="black"/>
<path d="M92.1299,564.677h -6.59055" fill="none" stroke="black"/>
<path d="M92.1299,554.809h -6.59055" fill="none" stroke="black"/>
<path d="M92.1299,547.155h -6.59055" fill="none" stroke="black"/>
<path d="M92.1299,540.901h -6.59055" fill="none" stroke="black"/>
<path d="M92.1299,535.613h -6.59055" fill="none" stroke="black"/>
<path d="M92.1299,531.033h -6.59055" fill="none" stroke="black"/>
<path d="M92.1299,526.993h -6.59055" fill="none" stroke="black"/>
<path d="M98.7205,523.378h -13.1811" fill="none" stroke="black"/>
<text x="78.5094" y="531.43" text-anchor="end" fill="black" font-size="16.1036" font-family="Helvetica" font-weight="bold">
10
</text>
<path d="M92.1299,499.602h -6.59055" fill="none" stroke="black"/>
<path d="M92.1299,485.694h -6.59055" fill="none" stroke="black"/>
<path d="M92.1299,475.826h -6.59055" fill="none" stroke="black"/>
<path d="M92.1299,468.171h -6.59055" fill="none" stroke="black"/>
<path d="M92.1299,461.917h -6.59055" fill="none" stroke="black"/>
<path d="M92.1299,456.63h -6.59055" fill="none" stroke="black"/>
<path d="M92.1299,452.049h -6.59055" fill="none" stroke="black"/>
<path d="M92.1299,448.009h -6.59055" fill="none" stroke="black"/>
<path d="M98.7205,444.395h -13.1811" fill="none" stroke="black"/>
<text x="72.7835" y="445.039" fill="black" font-size="10.9024" font-family="Helvetica" font-weight="bold">
2
</text>
<text x="55.7756" y="450.709" fill="black" font-size="16.1036" font-family="Helvetica" font-weight="bold">
10
</text>
<path d="M92.1299,420.618h -6.59055" fill="none" stroke="black"/>
<path d="M92.1299,406.71h -6.59055" fill="none" stroke="black"/>
<path d="M92.1299,396.842h -6.59055" fill="none" stroke="black"/>
<path d="M92.1299,389.188h -6.59055" fill="none" stroke="black"/>
<path d="M92.1299,382.934h -6.59055" fill="none" stroke="black"/>
<path d="M92.1299,377.646h -6.59055" fill="none" stroke="black"/>
<path d="M92.1299,373.065h -6.59055" fill="none" stroke="black"/>
<path d="M92.1299,369.025h -6.59055" fill="none" stroke="black"/>
<path d="M98.7205,365.411h -13.1811" fill="none" stroke="black"/>
<text x="72.7835" y="364.252" fill="black" font-size="10.9024" font-family="Helvetica" font-weight="bold">
3
</text>
<text x="55.7756" y="371.339" fill="black" font-size="16.1036" font-family="Helvetica" font-weight="bold">
10
</text>
<path d="M92.1299,341.635h -6.59055" fill="none" stroke="black"/>
<path d="M92.1299,327.726h -6.59055" fill="none" stroke="black"/>
<path d="M92.1299,317.858h -6.59055" fill="none" stroke="black"/>
<path d="M92.1299,310.204h -6.59055" fill="none" stroke="black"/>
<path d="M92.1299,303.95h -6.59055" fill="none" stroke="black"/>
<path d="M92.1299,298.662h -6.59055" fill="none" stroke="black"/>
<path d="M92.1299,294.082h -6.59055" fill="none" stroke="black"/>
<path d="M92.1299,290.042h -6.59055" fill="none" stroke="black"/>
<path d="M98.7205,286.427h -13.1811" fill="none" stroke="black"/>
<text x="72.7835" y="286.299" fill="black" font-size="10.9024" font-family="Helvetica" font-weight="bold">
4
</text>
<text x="55.7756" y="293.386" fill="black" font-size="16.1036" font-family="Helvetica" font-weight="bold">
10
</text>
<path d="M92.1299,262.651h -6.59055" fill="none" stroke="black"/>
<path d="M92.1299,248.743h -6.59055" fill="none" stroke="black"/>
<path d="M92.1299,238.875h -6.59055" fill="none" stroke="black"/>
<path d="M92.1299,231.22h -6.59055" fill="none" stroke="black"/>
<path d="M92.1299,224.966h -6.59055" fill="none" stroke="black"/>
<path d="M92.1299,219.678h -6.59055" fill="none" stroke="black"/>
<path d="M92.1299,215.098h -6.59055" fill="none" stroke="black"/>
<path d="M92.1299,211.058h -6.59055" fill="none" stroke="black"/>
<path d="M98.7205,207.444h -13.1811" fill="none" stroke="black"/>
<text x="72.7835" y="205.512" fill="black" font-size="10.9024" font-family="Helvetica" font-weight="bold">
5
</text>
<text x="55.7756" y="214.016" fill="black" font-size="16.1036" font-family="Helvetica" font-weight="bold">
10
</text>
<path d="M92.1299,183.667h -6.59055" fill="none" stroke="black"/>
<path d="M92.1299,169.759h -6.59055" fill="none" stroke="black"/>
<path d="M92.1299,159.891h -6.59055" fill="none" stroke="black"/>
<path d="M92.1299,152.237h -6.59055" fill="none" stroke="black"/>
<path d="M92.1299,145.983h -6.59055" fill="none" stroke="black"/>
<path d="M92.1299,140.695h -6.59055" fill="none" stroke="black"/>
<path d="M92.1299,136.114h -6.59055" fill="none" stroke="black"/>
<path d="M92.1299,132.074h -6.59055" fill="none" stroke="black"/>
<path d="M98.7205,128.46h -13.1811" fill="none" stroke="black"/>
<text x="72.7835" y="127.559" fill="black" font-size="10.9024" font-family="Helvetica" font-weight="bold">
6
</text>
<text x="55.7756" y="134.646" fill="black" font-size="16.1036" font-family="Helvetica" font-weight="bold">
10
</text>
<path d="M92.1299,104.684h -6.59055" fill="none" stroke="black"/>
<path d="M92.1299,90.7753h -6.59055" fill="none" stroke="black"/>
<path d="M92.1299,80.9072h -6.59055" fill="none" stroke="black"/>
<path d="M92.1299,73.2529h -6.59055" fill="none" stroke="black"/>
<path d="M92.1299,66.9989h -6.59055" fill="none" stroke="black"/>
<path d="M92.1299,61.7112h -6.59055" fill="none" stroke="black"/>
<path d="M92.1299,57.1307h -6.59055" fill="none" stroke="black"/>
<path d="M482.39,602.362v -549.213" fill="none" stroke="black"/>
<path d="M469.209,602.362h 13.1811" fill="none" stroke="black"/>
<path d="M475.799,578.586h 6.59055" fill="none" stroke="black"/>
<path d="M475.799,564.677h 6.59055" fill="none" stroke="black"/>
<path d="M475.799,554.809h 6.59055" fill="none" stroke="black"/>
<path d="M475.799,547.155h 6.59055" fill="none" stroke="black"/>
<path d="M475.799,540.901h 6.59055" fill="none" stroke="black"/>
<path d="M475.799,535.613h 6.59055" fill="none" stroke="black"/>
<path d="M475.799,531.033h 6.59055" fill="none" stroke="black"/>
<path d="M475.799,526.993h 6.59055" fill="none" stroke="black"/>
<path d="M469.209,523.378h 13.1811" fill="none" stroke="black"/>
<path d="M475.799,499.602h 6.59055" fill="none" stroke="black"/>
<path d="M475.799,485.694h 6.59055" fill="none" stroke="black"/>
<path d="M475.799,475.826h 6.59055" fill="none" stroke="black"/>
<path d="M475.799,468.171h 6.59055" fill="none" stroke="black"/>
<path d="M475.799,461.917h 6.59055" fill="none" stroke="black"/>
<path d="M475.799,456.63h 6.59055" fill="none" stroke="black"/>
<path d="M475.799,452.049h 6.59055" fill="none" stroke="black"/>
<path d="M475.799,448.009h 6.59055" fill="none" stroke="black"/>
<path d="M469.209,444.395h 13.1811" fill="none" stroke="black"/>
<path d="M475.799,420.618h 6.59055" fill="none" stroke="black"/>
<path d="M475.799,406.71h 6.59055" fill="none" stroke="black"/>
<path d="M475.799,396.842h 6.59055" fill="none" stroke="black"/>
<path d="M475.799,389.188h 6.59055" fill="none" stroke="black"/>
<path d="M475.799,382.934h 6.59055" fill="none" stroke="black"/>
<path d="M475.799,377.646h 6.59055" fill="none" stroke="black"/>
<path d="M475.799,373.065h 6.59055" fill="none" stroke="black"/>
<path d="M475.799,369.025h 6.59055" fill="none" stroke="black"/>
<path d="M469.209,365.411h 13.1811" fill="none" stroke="black"/>
<path d="M475.799,341.635h 6.59055" fill="none" stroke="black"/>
<path d="M475.799,327.726h 6.59055" fill="none" stroke="black"/>
<path d="M475.799,317.858h 6.59055" fill="none" stroke="black"/>
<path d="M475.799,310.204h 6.59055" fill="none" stroke="black"/>
<path d="M475.799,303.95h 6.59055" fill="none" stroke="black"/>
<path d="M475.799,298.662h 6.59055" fill="none" stroke="black"/>
<path d="M475.799,294.082h 6.59055" fill="none" stroke="black"/>
<path d="M475.799,290.042h 6.59055" fill="none" stroke="black"/>
<path d="M469.209,286.427h 13.1811" fill="none" stroke="black"/>
<path d="M475.799,262.651h 6.59055" fill="none" stroke="black"/>
<path d="M475.799,248.743h 6.59055" fill="none" stroke="black"/>
<path d="M475.799,238.875h 6.59055" fill="none" stroke="black"/>
<path d="M475.799,231.22h 6.59055" fill="none" stroke="black"/>
<path d="M475.799,224.966h 6.59055" fill="none" stroke="black"/>
<path d="M475.799,219.678h 6.59055" fill="none" stroke="black"/>
<path d="M475.799,215.098h 6.59055" fill="none" stroke="black"/>
<path d="M475.799,211.058h 6.59055" fill="none" stroke="black"/>
<path d="M469.209,207.444h 13.1811" fill="none" stroke="black"/>
<path d="M475.799,183.667h 6.59055" fill="none" stroke="black"/>
<path d="M475.799,169.759h 6.59055" fill="none" stroke="black"/>
<path d="M475.799,159.891h 6.59055" fill="none" stroke="black"/>
<path d="M475.799,152.237h 6.59055" fill="none" stroke="black"/>
<path d="M475.799,145.983h 6.59055" fill="none" stroke="black"/>
<path d="M475.799,140.695h 6.59055" fill="none" stroke="black"/>
<path d="M475.799,136.114h 6.59055" fill="none" stroke="black"/>
<path d="M475.799,132.074h 6.59055" fill="none" stroke="black"/>
<path d="M469.209,128.46h 13.1811" fill="none" stroke="black"/>
<path d="M475.799,104.684h 6.59055" fill="none" stroke="black"/>
<path d="M475.799,90.7753h 6.59055" fill="none" stroke="black"/>
<path d="M475.799,80.9072h 6.59055" fill="none" stroke="black"/>
<path d="M475.799,73.2529h 6.59055" fill="none" stroke="black"/>
<path d="M475.799,66.9989h 6.59055" fill="none" stroke="black"/>
<path d="M475.799,61.7112h 6.59055" fill="none" stroke="black"/>
<path d="M475.799,57.1307h 6.59055" fill="none" stroke="black"/>
<text x="381.76" y="82.2047" fill="black" font-size="13.503" font-family="Helvetica" font-weight="bold">
=19.49
</text>
<text x="373.256" y="82.2047" fill="black" font-size="13.503" font-family="Times">
&#0963;
</text>
<text x="317.98" y="82.2047" fill="black" font-size="13.503" font-family="Helvetica" font-weight="bold">
=165.43, 
</text>
<text x="309.476" y="82.2047" fill="black" font-size="13.503" font-family="Times">
&#0956;
</text>
<text x="283.965" y="82.2047" fill="black" font-size="13.503" font-family="Helvetica" font-weight="bold">
All: 
</text>
<text x="283.965" y="96.378" fill="black" font-size="13.503" font-family="Helvetica" font-weight="bold">
N=20234240 UF=2027, OF=1468
</text>
<path d="M86.9567,600.945v -22.3591h 2.99213v 22.3591h 4.40945v -36.2675h 4.40945v -29.0642h 4.40945v -15.5041h 8.8189v -25.3013h 4.40945v -38.6649h 4.40945v -43.1789h 4.40945v -52.7031h 4.40945v -63.9608h 4.40945v -63.6954h 4.40945v -57.1565h
 4.40945v -45.8763h 4.40945v -31.8467h 4.40945v -17.693h 4.40945v -4.07979h 4.40945v 8.54744h 4.40945v 19.2638h 4.40945v 27.2464h 4.40945v 31.1923h 4.40945v 31.3239h 4.40945v 29.688h 4.40945v 29.2417h 4.40945v 28.3114h 4.40945v 25.9806h 4.40945v
 21.0127h 4.40945v 14.3055h 4.40945v 12.3964h 4.40945v 10.7434h 4.40945v 12.2445h 4.40945v 9.86812h 4.40945v 10.3918h 4.40945v 14.4402h 4.40945v 6.147h 4.40945v 18.443h 4.40945v 1.40028h 4.40945v 13.9083h 4.40945v 12.2347h 4.40945v 14.216h 4.40945v
 6.06911h 4.40945v 27.2678h 4.40945v -4.58042h 4.40945v 9.86812h 4.40945v 9.86812h 4.40945v -6.88344h 4.40945v 20.7918h 4.40945v 6.25403h 4.40945v 7.65431h 4.40945v 46.1356h 4.40945v -36.2675h 4.40945v 13.9083h 4.40945v 22.3591h 4.40945v -36.2675h
 4.40945v 13.9083h 4.40945v 22.3591h 4.40945v -46.1356h 4.40945v 46.1356h 4.40945v -22.3591h 4.40945v -13.9083h 4.40945v 36.2675h 17.6378v -22.3591h 4.40945v 22.3591h 83.7795v -22.3591h 4.40945v 22.3591h 22.0472" fill="none" stroke="#009900"
 stroke-width="2"/>
<text x="374.673" y="110.551" fill="#009900" font-size="13.503" font-family="Helvetica" font-weight="bold">
=17.9
</text>
<text x="366.169" y="110.551" fill="#009900" font-size="13.503" font-family="Times">
&#0963;
</text>
<text x="310.894" y="110.551" fill="#009900" font-size="13.503" font-family="Helvetica" font-weight="bold">
=165.13, 
</text>
<text x="302.39" y="110.551" fill="#009900" font-size="13.503" font-family="Times">
&#0956;
</text>
<text x="283.965" y="110.551" fill="#009900" font-size="13.503" font-family="Helvetica" font-weight="bold">
A: 
</text>
<text x="283.965" y="124.724" fill="#009900" font-size="13.503" font-family="Helvetica" font-weight="bold">
N=19680960 UF=142, OF=463
</text>
<path d="M86.9567,600.945v -36.2675h 2.99213v 36.2675h 30.8661v -91.4747h 4.40945v -64.0305h 4.40945v -54.7802h 4.40945v -46.2948h 4.40945v -37.3676h 4.40945v -38.9242h 4.40945v -32.7942h 4.40945v -20.0016h 4.40945v -6.3828h 4.40945v 5.75075h
 4.40945v 17.316h 4.40945v 26.1445h 4.40945v 31.9324h 4.40945v 33.5875h 4.40945v 28.2686h 4.40945v 20.8728h 4.40945v 13.1516h 4.40945v 6.57988h 4.40945v 3.74868h 4.40945v 2.62645h 4.40945v 5.40924h 4.40945v 6.04163h 4.40945v 5.05558h 4.40945v
 4.55939h 4.40945v 7.90746h 4.40945v 6.25403h 4.40945v 13.5293h 4.40945v 8.03334h 4.40945v 13.201h 4.40945v 10.5754h 4.40945v 9.86812h 4.40945v 4.04021h 4.40945v 26.7611h 4.40945v 15.5041h 4.40945v -21.2344h 4.40945v 32.7761h 8.8189v 53.7899h
 4.40945v -65.3316h 4.40945v 42.9725h 4.40945v 22.3591h 185.197" fill="none" stroke="#ff9933" stroke-width="2"/>
<text x="374.673" y="138.898" fill="#ff9933" font-size="13.503" font-family="Helvetica" font-weight="bold">
=21.34
</text>
<text x="366.169" y="138.898" fill="#ff9933" font-size="13.503" font-family="Times">
&#0963;
</text>
<text x="310.894" y="138.898" fill="#ff9933" font-size="13.503" font-family="Helvetica" font-weight="bold">
=167.42, 
</text>
<text x="302.39" y="138.898" fill="#ff9933" font-size="13.503" font-family="Times">
&#0956;
</text>
<text x="283.965" y="138.898" fill="#ff9933" font-size="13.503" font-family="Helvetica" font-weight="bold">
B: 
</text>
<text x="283.965" y="153.071" fill="#ff9933" font-size="13.503" font-family="Helvetica" font-weight="bold">
N=416000 UF=69, OF=84
</text>
<path d="M86.9567,600.945v -132.774h 2.99213v 51.9379h 4.40945v 3.26935h 4.40945v -13.9083h 4.40945v -9.86812h 4.40945v 31.4308h 4.40945v -25.856h 4.40945v -46.0052h 4.40945v 24.3083h 4.40945v -46.7394h 4.40945v -41.3263h 4.40945v -33.5519h 4.40945v
 -27.4539h 4.40945v -30.2923h 4.40945v -26.1565h 4.40945v -16.5632h 4.40945v -5.54258h 4.40945v 5.88991h 4.40945v 13.7351h 4.40945v 19.1911h 4.40945v 22.6101h 4.40945v 27.8736h 4.40945v 28.6486h 4.40945v 25.9932h 4.40945v 8.55394h 4.40945v 3.26935h
 4.40945v -3.02863h 4.40945v -5.76746h 4.40945v -7.49058h 4.40945v -6.07576h 4.40945v -6.83341h 4.40945v -5.11831h 4.40945v -4.02404h 4.40945v -3.44541h 4.40945v -1.74971h 4.40945v -2.3295h 4.40945v 0.173682h 4.40945v 0.739224h 4.40945v -0.248182h
 4.40945v 3.21992h 4.40945v 5.22955h 4.40945v 0.0905071h 4.40945v 6.90359h 4.40945v 0.390118h 4.40945v 6.11977h 4.40945v 7.28779h 4.40945v 5.95704h 4.40945v 3.20042h 4.40945v 6.79938h 4.40945v 6.04358h 4.40945v 3.82454h 4.40945v 11.3663h 4.40945v
 -0.486564h 4.40945v 4.92726h 4.40945v 11.878h 4.40945v 7.45774h 4.40945v 2.01836h 4.40945v 1.05553h 4.40945v 6.46909h 8.8189v 8.80605h 4.40945v -8.80605h 4.40945v 7.1723h 4.40945v 1.63375h 4.40945v -0.826599h 4.40945v 12.7046h 4.40945v 9.47609h
 4.40945v 15.5041h 4.40945v -15.5041h 4.40945v 5.02882h 8.8189v 22.017h 4.40945v 3.6141h 4.40945v -12.6138h 4.40945v 40.4304h 4.40945v -23.7765h 4.40945v -23.7765h 4.40945v 7.12248h 4.40945v -4.90867h 4.40945v 31.4308h 4.40945v 23.7765h 4.40945v
 -9.86812h 4.40945v -31.4308h 4.40945v 17.5224h 4.40945v 23.7765h 8.8189v -23.7765h 4.40945v 37.6848h 8.8189v -13.9083h 4.40945v 36.2675" fill="none" stroke="#ff0000" stroke-width="2"/>
<text x="374.673" y="167.244" fill="#ff0000" font-size="13.503" font-family="Helvetica" font-weight="bold">
=83.06
</text>
<text x="366.169" y="167.244" fill="#ff0000" font-size="13.503" font-family="Times">
&#0963;
</text>
<text x="310.894" y="167.244" fill="#ff0000" font-size="13.503" font-family="Helvetica" font-weight="bold">
=194.79, 
</text>
<text x="302.39" y="167.244" fill="#ff0000" font-size="13.503" font-family="Times">
&#0956;
</text>
<text x="283.965" y="167.244" fill="#ff0000" font-size="13.503" font-family="Helvetica" font-weight="bold">
C: 
</text>
<text x="283.965" y="181.417" fill="#ff0000" font-size="13.503" font-family="Helvetica" font-weight="bold">
N=137280 UF=1816, OF=921
</text>
<rect x="6.16929" y="3.5433" width="396.85" height="35.4331" fill="white"/>
<text x="298.138" y="28.3465" fill="black" font-size="22.605" font-family="Helvetica" font-weight="bold">
) C0 100
</text>
<text x="292.469" y="14.1732" fill="black" font-size="15.2367" font-family="Helvetica" font-weight="bold">
-
</text>
<text x="24.5945" y="28.3465" fill="black" font-size="22.605" font-family="Helvetica" font-weight="bold">
S-Curve widths: Noise (e
</text>
<text x="85.5394" y="44.9022" fill="black" font-size="16.1036" font-family="Helvetica" font-weight="bold">
#roc: 4864,  #pix: 20234240
</text>
<path d="M261.917,602.362v -473.902" fill="none" stroke="#ff0000" stroke-dasharray=" 3, 3"/></svg>
